<?xml version="1.0" encoding="UTF-8" standalone="no"?>
<!DOCTYPE svg PUBLIC "-//W3C//DTD SVG 1.1//EN" "http://www.w3.org/Graphics/SVG/1.1/DTD/svg11.dtd">
<svg version="1.1" xmlns="http://www.w3.org/2000/svg" xmlns:xlink="http://www.w3.org/1999/xlink" preserveAspectRatio="xMidYMid meet" viewBox="0 0 60 60" width="60" height="60"><defs><path d="M32.67 2.45L33.97 2.59L35.26 2.79L36.53 3.04L37.78 3.34L39.01 3.69L40.22 4.1L41.4 4.55L42.55 5.05L43.68 5.59L44.78 6.18L45.85 6.82L46.89 7.49L47.9 8.21L48.87 8.96L49.81 9.76L50.71 10.59L51.58 11.46L52.4 12.36L53.19 13.3L53.93 14.26L54.64 15.26L55.3 16.29L55.91 17.35L56.48 18.43L56.99 19.54L57.46 20.68L57.88 21.84L58.25 23.02L58.57 24.22L58.83 25.45L59.03 26.69L59.18 27.94L59.27 29.22L59.3 30.51L59.27 31.8L59.18 33.07L59.03 34.33L58.83 35.57L58.57 36.79L58.25 37.99L57.88 39.17L57.46 40.33L56.99 41.47L56.48 42.58L55.91 43.66L55.3 44.72L54.64 45.75L53.93 46.75L53.19 47.72L52.4 48.65L51.58 49.56L50.71 50.42L49.81 51.26L48.87 52.05L47.9 52.81L46.89 53.52L45.85 54.2L44.78 54.83L43.68 55.42L42.55 55.97L41.4 56.46L40.22 56.92L39.01 57.32L37.78 57.67L36.53 57.98L35.26 58.23L33.97 58.42L32.67 58.56L31.34 58.65L30 58.68L28.66 58.65L27.33 58.56L26.03 58.42L24.74 58.23L23.47 57.98L22.22 57.67L20.99 57.32L19.78 56.92L18.6 56.46L17.45 55.97L16.32 55.42L15.22 54.83L14.15 54.2L13.11 53.52L12.1 52.81L11.13 52.05L10.19 51.26L9.29 50.42L8.42 49.56L7.6 48.65L6.81 47.72L6.07 46.75L5.36 45.75L4.7 44.72L4.09 43.66L3.52 42.58L3.01 41.47L2.54 40.33L2.12 39.17L1.75 37.99L1.43 36.79L1.17 35.57L0.97 34.33L0.82 33.07L0.73 31.8L0.7 30.51L0.73 29.22L0.82 27.94L0.97 26.69L1.17 25.45L1.43 24.22L1.75 23.02L2.12 21.84L2.54 20.68L3.01 19.54L3.52 18.43L4.09 17.35L4.7 16.29L5.36 15.26L6.07 14.26L6.81 13.3L7.6 12.36L8.42 11.46L9.29 10.59L10.19 9.76L11.13 8.96L12.1 8.21L13.11 7.49L14.15 6.82L15.22 6.18L16.32 5.59L17.45 5.05L18.6 4.55L19.78 4.1L20.99 3.69L22.22 3.34L23.47 3.04L24.74 2.79L26.03 2.59L27.33 2.45L28.66 2.36L30 2.33L31.34 2.36L32.67 2.45ZM43.99 24.4L44.05 24.59L44.1 24.78L44.14 24.98L44.18 25.17L44.22 25.37L44.26 25.56L44.29 25.76L44.32 25.95L44.34 26.15L44.36 26.35L44.38 26.54L44.39 26.74L44.4 26.94L44.41 27.13L44.41 27.33L44.4 27.68L44.39 28.02L44.36 28.36L44.32 28.69L44.27 29.03L44.21 29.36L44.14 29.69L44.06 30.02L43.97 30.35L43.87 30.67L43.76 30.99L43.63 31.31L43.5 31.63L43.35 31.95L43.2 32.26L43.03 32.57L42.85 32.88L42.67 33.19L42.47 33.49L42.26 33.79L42.05 34.08L41.82 34.37L41.59 34.66L41.34 34.94L41.09 35.22L40.83 35.49L40.56 35.76L40.28 36.02L39.99 36.28L39.69 36.54L39.38 36.79L39.06 37.03L38.73 37.28L38.4 37.52L38.08 37.73L37.75 37.94L37.43 38.14L37.09 38.33L36.75 38.52L36.41 38.7L36.06 38.88L35.7 39.05L35.34 39.22L34.97 39.38L34.6 39.53L34.23 39.68L33.85 39.82L33.46 39.96L33.07 40.09L32.67 40.22L32.27 40.33L31.87 40.45L31.46 40.55L31.05 40.65L30.64 40.74L30.23 40.83L29.81 40.91L29.39 40.98L28.97 41.04L28.55 41.1L28.13 41.15L27.7 41.2L27.27 41.23L26.84 41.26L26.41 41.29L25.98 41.3L25.54 41.31L25.1 41.32L25.02 41.32L24.93 41.32L24.84 41.31L24.74 41.31L24.64 41.31L24.53 41.31L24.42 41.3L24.3 41.3L24.18 41.29L24.06 41.29L23.93 41.28L23.8 41.27L23.66 41.27L23.52 41.26L23.37 41.25L23.22 41.24L23.06 41.23L23.62 41.56L24.18 41.87L24.76 42.16L25.35 42.43L25.95 42.68L26.56 42.91L27.18 43.12L27.81 43.31L28.45 43.48L29.11 43.63L29.78 43.76L30.45 43.87L31.14 43.96L31.84 44.03L32.56 44.07L33.28 44.1L34.01 44.11L34.25 44.11L34.48 44.11L34.72 44.1L34.96 44.1L35.19 44.08L35.43 44.07L35.67 44.06L35.91 44.04L36.15 44.02L36.39 43.99L36.63 43.97L36.88 43.94L37.12 43.91L37.36 43.88L37.61 43.84L37.85 43.8L38.1 43.77L38.44 43.99L38.78 44.2L39.13 44.41L39.49 44.61L39.85 44.81L40.21 44.99L40.58 45.17L40.96 45.34L41.34 45.51L41.72 45.66L42.11 45.81L42.51 45.96L42.9 46.09L43.31 46.22L43.72 46.34L44.13 46.46L44.55 46.56L44.65 46.59L44.75 46.61L44.85 46.63L44.96 46.65L45.07 46.67L45.18 46.7L45.29 46.72L45.4 46.74L45.52 46.76L45.64 46.78L45.76 46.8L45.89 46.82L46.01 46.84L46.14 46.86L46.27 46.88L46.41 46.89L46.54 46.91L46.57 46.91L46.61 46.91L46.64 46.91L46.67 46.91L46.7 46.91L46.73 46.9L46.76 46.9L46.79 46.89L46.82 46.88L46.85 46.87L46.88 46.86L46.91 46.85L46.94 46.83L46.97 46.81L47 46.8L47.03 46.78L47.05 46.76L47.08 46.74L47.11 46.72L47.13 46.69L47.15 46.67L47.18 46.65L47.2 46.62L47.22 46.59L47.24 46.57L47.25 46.54L47.27 46.51L47.29 46.48L47.3 46.45L47.31 46.42L47.32 46.38L47.34 46.35L47.35 46.31L47.35 46.28L47.35 46.26L47.35 46.25L47.35 46.24L47.35 46.22L47.35 46.21L47.35 46.2L47.35 46.19L47.35 46.18L47.36 46.17L47.36 46.17L47.36 46.16L47.36 46.15L47.36 46.15L47.37 46.14L47.37 46.14L47.37 46.14L47.38 46.13L47.38 46.13L47.39 46.13L47.39 46.12L47.39 46.12L47.39 46.11L47.39 46.11L47.39 46.1L47.39 46.09L47.39 46.08L47.39 46.07L47.39 46.06L47.38 46.05L47.38 46.04L47.38 46.02L47.37 46.01L47.37 45.99L47.36 45.97L47.34 45.93L47.33 45.89L47.32 45.86L47.26 45.75L47.26 45.74L47.25 45.74L47.25 45.73L47.24 45.72L47.23 45.71L47.23 45.7L47.22 45.69L47.22 45.68L47.21 45.68L47.21 45.67L47.19 45.65L47.19 45.64L47.17 45.63L47.17 45.62L47.16 45.61L47.15 45.6L47.15 45.59L47.14 45.59L47.14 45.58L47.13 45.57L47.12 45.56L47.12 45.55L47.11 45.54L47.1 45.54L47.1 45.53L47.09 45.53L47.08 45.52L47.07 45.51L47.06 45.5L47.04 45.48L47.02 45.46L47 45.43L46.99 45.43L46.96 45.39L46.94 45.37L46.93 45.36L46.92 45.35L46.9 45.33L46.9 45.32L46.89 45.32L46.89 45.32L46.88 45.3L46.86 45.28L46.84 45.26L46.82 45.24L46.8 45.22L46.77 45.19L46.74 45.16L46.72 45.13L46.68 45.1L46.65 45.07L46.61 45.03L46.58 44.99L46.54 44.95L46.5 44.91L46.45 44.87L46.41 44.82L46.31 44.72L46.26 44.68L46.22 44.63L46.17 44.59L46.13 44.54L46.09 44.5L46.05 44.46L46.02 44.42L45.98 44.38L45.95 44.35L45.91 44.31L45.88 44.28L45.85 44.25L45.83 44.21L45.8 44.18L45.78 44.16L45.75 44.13L45.73 44.1L45.71 44.07L45.68 44.04L45.66 44.01L45.63 43.98L45.6 43.94L45.58 43.91L45.55 43.87L45.52 43.84L45.48 43.8L45.45 43.76L45.42 43.72L45.38 43.67L45.35 43.63L45.31 43.59L45.27 43.54L45.23 43.49L45.19 43.45L45.15 43.4L45.12 43.35L45.08 43.3L45.04 43.25L45.01 43.2L44.97 43.16L44.94 43.11L44.9 43.06L44.87 43.01L44.84 42.96L44.8 42.91L44.77 42.86L44.74 42.81L44.71 42.75L44.68 42.7L44.65 42.65L44.62 42.6L44.6 42.55L44.57 42.5L44.54 42.44L44.51 42.39L44.48 42.33L44.45 42.28L44.43 42.22L44.4 42.17L44.37 42.11L44.34 42.05L44.31 41.99L44.29 41.93L44.26 41.87L44.23 41.81L44.2 41.75L44.18 41.69L44.51 41.5L44.84 41.31L45.15 41.11L45.46 40.91L45.76 40.7L46.05 40.49L46.34 40.27L46.61 40.05L46.88 39.83L47.14 39.59L47.38 39.36L47.63 39.11L47.86 38.87L48.08 38.62L48.3 38.36L48.5 38.1L48.7 37.83L48.89 37.56L49.06 37.29L49.23 37.02L49.38 36.74L49.53 36.46L49.66 36.18L49.78 35.89L49.89 35.61L49.98 35.32L50.07 35.03L50.14 34.74L50.2 34.44L50.26 34.14L50.3 33.84L50.32 33.54L50.34 33.23L50.35 32.93L50.34 32.61L50.32 32.3L50.29 31.99L50.25 31.68L50.2 31.38L50.13 31.07L50.05 30.77L49.96 30.47L49.86 30.18L49.75 29.89L49.62 29.59L49.48 29.31L49.33 29.02L49.17 28.74L48.99 28.46L48.81 28.18L48.61 27.9L48.4 27.63L48.18 27.36L47.95 27.1L47.72 26.84L47.48 26.59L47.22 26.35L46.96 26.11L46.69 25.87L46.41 25.65L46.13 25.42L45.83 25.2L45.53 24.99L45.21 24.78L44.89 24.58L44.56 24.39L44.22 24.2L43.87 24.01L43.94 24.2L43.99 24.4ZM24 15.27L23.54 15.29L23.09 15.32L22.64 15.35L22.19 15.4L21.75 15.45L21.31 15.52L20.88 15.59L20.44 15.67L20.02 15.75L19.59 15.85L19.17 15.95L18.75 16.06L18.34 16.18L17.93 16.31L17.52 16.45L17.12 16.59L16.72 16.75L16.33 16.91L15.95 17.08L15.57 17.25L15.21 17.43L14.85 17.61L14.5 17.8L14.16 18L13.83 18.2L13.51 18.41L13.19 18.62L12.89 18.84L12.59 19.07L12.31 19.3L12.03 19.54L11.76 19.79L11.5 20.04L11.25 20.29L11.01 20.56L10.77 20.82L10.55 21.1L10.34 21.37L10.14 21.65L9.95 21.93L9.78 22.21L9.61 22.5L9.46 22.79L9.32 23.08L9.19 23.37L9.08 23.66L8.98 23.96L8.89 24.26L8.81 24.57L8.74 24.87L8.69 25.18L8.65 25.49L8.61 25.8L8.6 26.12L8.59 26.44L8.6 26.71L8.61 26.98L8.63 27.25L8.66 27.52L8.7 27.79L8.76 28.05L8.81 28.31L8.88 28.57L8.96 28.83L9.05 29.09L9.14 29.35L9.25 29.6L9.36 29.85L9.49 30.11L9.62 30.35L9.76 30.6L9.91 30.85L10.07 31.09L10.24 31.33L10.42 31.57L10.6 31.81L10.79 32.04L10.99 32.27L11.19 32.49L11.4 32.71L11.62 32.93L11.84 33.14L12.08 33.35L12.31 33.55L12.56 33.75L12.81 33.94L13.07 34.14L13.33 34.32L13.61 34.51L13.88 34.69L14.17 34.86L14.46 35.03L14.76 35.2L14.74 35.26L14.71 35.31L14.69 35.37L14.66 35.42L14.64 35.47L14.62 35.52L14.59 35.58L14.57 35.63L14.54 35.68L14.52 35.73L14.49 35.78L14.47 35.83L14.44 35.88L14.41 35.93L14.39 35.98L14.36 36.02L14.34 36.07L14.31 36.12L14.29 36.16L14.26 36.21L14.23 36.26L14.21 36.3L14.18 36.35L14.15 36.39L14.12 36.44L14.1 36.48L14.07 36.53L14.04 36.57L14 36.61L13.97 36.66L13.94 36.7L13.91 36.75L13.88 36.79L13.84 36.83L13.81 36.88L13.78 36.92L13.74 36.96L13.71 37.01L13.67 37.05L13.64 37.09L13.6 37.13L13.57 37.17L13.54 37.21L13.51 37.24L13.48 37.28L13.45 37.31L13.42 37.35L13.39 37.38L13.37 37.41L13.34 37.45L13.32 37.48L13.29 37.51L13.27 37.53L13.25 37.56L13.23 37.59L13.21 37.61L13.19 37.64L13.16 37.66L13.14 37.69L13.12 37.72L13.1 37.74L13.07 37.77L13.04 37.8L13.02 37.83L12.99 37.86L12.96 37.9L12.93 37.93L12.89 37.97L12.86 38L12.82 38.04L12.79 38.08L12.75 38.12L12.71 38.16L12.67 38.2L12.63 38.24L12.58 38.28L12.54 38.33L12.5 38.37L12.46 38.41L12.42 38.45L12.38 38.48L12.35 38.52L12.31 38.55L12.28 38.58L12.25 38.61L12.23 38.64L12.2 38.67L12.17 38.69L12.15 38.72L12.13 38.74L12.11 38.76L12.09 38.78L12.08 38.8L12.06 38.81L12.05 38.83L12.05 38.83L12.05 38.83L12.04 38.83L12.04 38.83L12.04 38.83L12.04 38.83L12.03 38.84L12.03 38.84L12.02 38.85L12.02 38.85L12.01 38.86L12 38.87L12 38.87L11.99 38.88L11.98 38.89L11.97 38.9L11.96 38.92L11.96 38.93L11.95 38.94L11.94 38.95L11.93 38.96L11.92 38.97L11.91 38.98L11.9 38.99L11.9 39L11.89 39.01L11.89 39.01L11.88 39.02L11.87 39.02L11.87 39.03L11.87 39.03L11.86 39.03L11.86 39.04L11.86 39.04L11.85 39.04L11.85 39.04L11.85 39.04L11.85 39.04L11.85 39.04L11.84 39.04L11.84 39.04L11.84 39.04L11.83 39.05L11.83 39.05L11.82 39.06L11.82 39.06L11.81 39.07L11.81 39.08L11.8 39.08L11.8 39.09L11.79 39.1L11.78 39.11L11.77 39.12L11.77 39.13L11.75 39.16L11.7 39.23L11.68 39.27L11.62 39.37L11.61 39.38L11.61 39.39L11.6 39.4L11.6 39.41L11.6 39.42L11.6 39.42L11.59 39.43L11.59 39.44L11.59 39.44L11.58 39.46L11.58 39.46L11.58 39.47L11.58 39.48L11.58 39.49L11.57 39.49L11.57 39.5L11.57 39.51L11.57 39.53L11.57 39.53L11.57 39.55L11.56 39.56L11.56 39.57L11.56 39.59L11.56 39.6L11.56 39.62L11.56 39.63L11.56 39.65L11.56 39.66L11.56 39.66L11.56 39.67L11.56 39.68L11.56 39.69L11.56 39.69L11.56 39.7L11.56 39.71L11.57 39.72L11.57 39.73L11.57 39.73L11.57 39.74L11.57 39.75L11.57 39.75L11.57 39.76L11.58 39.77L11.58 39.78L11.58 39.78L11.58 39.79L11.59 39.82L11.6 39.85L11.6 39.88L11.61 39.9L11.62 39.93L11.63 39.96L11.64 39.98L11.65 40.01L11.67 40.03L11.68 40.06L11.7 40.08L11.71 40.1L11.73 40.13L11.75 40.15L11.77 40.17L11.79 40.19L11.81 40.21L11.83 40.23L11.85 40.25L11.87 40.27L11.9 40.28L11.92 40.3L11.94 40.31L11.97 40.33L11.99 40.34L12.02 40.35L12.04 40.36L12.07 40.37L12.09 40.38L12.12 40.39L12.14 40.4L12.17 40.41L12.19 40.41L12.22 40.42L12.25 40.42L12.27 40.42L12.3 40.42L12.33 40.42L12.4 40.42L12.52 40.41L12.64 40.39L12.75 40.37L12.87 40.36L12.98 40.34L13.1 40.32L13.21 40.3L13.32 40.29L13.42 40.27L13.53 40.25L13.63 40.23L13.73 40.21L13.83 40.19L13.93 40.17L14.03 40.15L14.12 40.13L14.21 40.11L14.3 40.09L14.39 40.07L14.77 39.98L15.14 39.88L15.5 39.77L15.86 39.66L16.22 39.54L16.58 39.42L16.93 39.29L17.28 39.15L17.62 39.01L17.96 38.86L18.3 38.71L18.63 38.55L18.96 38.39L19.28 38.22L19.6 38.04L19.92 37.86L20.23 37.67L20.54 37.48L20.84 37.28L21.06 37.31L21.28 37.35L21.5 37.38L21.72 37.41L21.93 37.44L22.15 37.46L22.37 37.49L22.58 37.51L22.8 37.53L23.01 37.55L23.23 37.56L23.44 37.58L23.66 37.59L23.87 37.6L24.08 37.61L24.29 37.62L24.5 37.62L24.71 37.63L24.93 37.63L25.39 37.62L25.85 37.61L26.31 37.59L26.76 37.56L27.21 37.52L27.66 37.48L28.1 37.42L28.54 37.36L28.98 37.29L29.41 37.21L29.83 37.13L30.26 37.03L30.68 36.93L31.1 36.81L31.51 36.69L31.92 36.57L32.33 36.43L32.73 36.28L33.13 36.13L33.52 35.97L33.9 35.8L34.28 35.63L34.64 35.45L35 35.27L35.35 35.08L35.69 34.88L36.02 34.68L36.34 34.47L36.66 34.26L36.96 34.03L37.26 33.81L37.54 33.58L37.82 33.34L38.09 33.09L38.35 32.84L38.6 32.59L38.84 32.32L39.08 32.05L39.3 31.78L39.51 31.51L39.71 31.23L39.9 30.95L40.08 30.67L40.24 30.38L40.39 30.09L40.53 29.8L40.65 29.51L40.77 29.21L40.87 28.92L40.96 28.61L41.04 28.31L41.11 28.01L41.16 27.7L41.2 27.39L41.23 27.07L41.25 26.76L41.26 26.44L41.25 26.12L41.23 25.8L41.2 25.49L41.16 25.18L41.11 24.87L41.04 24.57L40.96 24.26L40.87 23.96L40.77 23.66L40.65 23.37L40.53 23.08L40.39 22.79L40.24 22.5L40.08 22.21L39.9 21.93L39.71 21.65L39.51 21.37L39.3 21.1L39.08 20.82L38.84 20.55L38.6 20.29L38.35 20.04L38.09 19.79L37.82 19.54L37.54 19.3L37.26 19.07L36.96 18.84L36.66 18.62L36.34 18.41L36.02 18.2L35.69 18L35.35 17.8L35 17.61L34.64 17.43L34.28 17.25L33.9 17.07L33.52 16.91L33.13 16.75L32.73 16.59L32.33 16.45L31.92 16.31L31.51 16.18L31.1 16.06L30.68 15.95L30.26 15.85L29.83 15.75L29.41 15.67L28.98 15.59L28.54 15.52L28.1 15.45L27.66 15.4L27.21 15.35L26.76 15.32L26.31 15.29L25.85 15.27L25.39 15.26L24.93 15.25L24.46 15.26L24 15.27ZM25.93 18.07L26.43 18.1L26.92 18.14L27.4 18.19L27.88 18.26L28.36 18.33L28.83 18.42L29.3 18.52L29.76 18.63L30.22 18.75L30.67 18.88L31.12 19.03L31.56 19.18L32 19.35L32.42 19.53L32.83 19.71L33.22 19.9L33.6 20.1L33.97 20.31L34.33 20.52L34.67 20.75L35.01 20.98L35.32 21.22L35.63 21.47L35.92 21.73L36.2 21.99L36.47 22.27L36.72 22.54L36.95 22.83L37.17 23.11L37.36 23.4L37.54 23.69L37.69 23.98L37.83 24.28L37.96 24.58L38.06 24.88L38.14 25.19L38.21 25.5L38.25 25.81L38.28 26.12L38.29 26.44L38.28 26.76L38.25 27.07L38.21 27.38L38.14 27.69L38.06 28L37.96 28.3L37.83 28.6L37.69 28.89L37.54 29.19L37.36 29.48L37.17 29.77L36.95 30.05L36.72 30.33L36.47 30.61L36.2 30.89L35.92 31.15L35.63 31.41L35.32 31.66L35.01 31.9L34.67 32.13L34.33 32.36L33.97 32.57L33.6 32.78L33.22 32.98L32.83 33.17L32.42 33.35L32 33.53L31.56 33.69L31.12 33.85L30.67 34L30.22 34.13L29.76 34.25L29.3 34.36L28.83 34.46L28.36 34.55L27.88 34.62L27.4 34.69L26.92 34.74L26.43 34.78L25.93 34.81L25.43 34.82L24.93 34.83L24.68 34.83L24.43 34.82L24.18 34.82L23.93 34.81L23.67 34.79L23.42 34.77L23.17 34.75L22.91 34.73L22.66 34.7L22.4 34.67L22.15 34.64L21.89 34.61L21.63 34.57L21.38 34.52L20.15 34.31L19.12 34.98L19.03 35.04L18.94 35.1L18.84 35.16L18.74 35.22L18.64 35.28L18.54 35.34L18.44 35.4L18.34 35.46L18.23 35.53L18.13 35.59L18.02 35.65L17.91 35.71L17.8 35.77L17.69 35.84L18.5 34L16.25 32.78L15.93 32.6L15.63 32.42L15.34 32.23L15.06 32.04L14.78 31.85L14.52 31.65L14.27 31.44L14.03 31.24L13.8 31.02L13.57 30.81L13.36 30.58L13.16 30.36L12.97 30.13L12.79 29.89L12.62 29.65L12.46 29.41L12.32 29.17L12.19 28.93L12.07 28.69L11.96 28.44L11.87 28.2L11.79 27.95L11.72 27.7L11.66 27.45L11.62 27.2L11.59 26.95L11.57 26.69L11.56 26.44L11.57 26.12L11.6 25.81L11.64 25.5L11.71 25.19L11.79 24.88L11.9 24.58L12.02 24.28L12.16 23.98L12.31 23.69L12.49 23.4L12.69 23.11L12.9 22.83L13.13 22.54L13.38 22.27L13.65 21.99L13.93 21.73L14.22 21.47L14.53 21.22L14.84 20.98L15.18 20.75L15.52 20.52L15.88 20.31L16.25 20.1L16.63 19.9L17.03 19.71L17.43 19.53L17.86 19.35L18.29 19.18L18.73 19.03L19.18 18.88L19.63 18.75L20.09 18.63L20.55 18.52L21.02 18.42L21.49 18.33L21.97 18.26L22.45 18.19L22.93 18.14L23.43 18.1L23.92 18.07L24.42 18.05L24.93 18.05L25.43 18.05L25.93 18.07Z" id="f17JziJj2"></path></defs><g><g><g><use xlink:href="#f17JziJj2" opacity="1" fill="#00cfbf" fill-opacity="1"></use></g></g></g></svg>