<?xml version="1.0"?>
<svg xmlns="http://www.w3.org/2000/svg" height="512px" viewBox="-48 0 512 512" width="512px" class=""><g><path d="m208.015625 429.496094c95.664063 0 173.492187-77.832032 173.492187-173.496094s-77.828124-173.496094-173.492187-173.496094c-95.667969 0-173.496094 77.832032-173.496094 173.496094s77.828125 173.496094 173.496094 173.496094zm0-331.984375c87.390625 0 158.488281 71.097656 158.488281 158.488281s-71.097656 158.488281-158.488281 158.488281c-87.394531 0-158.488281-71.097656-158.488281-158.488281s71.097656-158.488281 158.488281-158.488281zm0 0" data-original="#000000" class="active-path" data-old_color="#00cfbf" fill="#00cfbf"/><path d="m323.53125 83.082031c-5.882812-11.105469-11.886719-22.542969-16.464844-33.640625-1.578125-3.832031-5.964844-5.65625-9.796875-4.074218-3.828125 1.578124-5.652343 5.964843-4.074219 9.796874 1.925782 4.664063 4.058594 9.332032 6.316407 13.988282-57.167969-28.050782-125.078125-28.417969-182.992188-.003906 8.578125-17.710938 15.449219-35.777344 16.113281-54.140626h150.761719c.15625 4.335938.667969 8.78125 1.539063 13.421876.765625 4.074218 4.679687 6.753906 8.757812 5.988281 4.074219-.761719 6.753906-4.683594 5.992188-8.757813-1.179688-6.273437-1.570313-12.046875-1.195313-17.65625.289063-4.34375-3.160156-8.003906-7.488281-8.003906h-165.972656c-4.351563 0-7.773438 3.683594-7.484375 8.003906 1.617187 24.269532-11.214844 48.96875-25.042969 75.078125-55.738281 37.359375-92.5 100.925781-92.5 172.917969 0 49.203125 17.507812 96.945312 49.296875 134.441406 2.679687 3.15625 7.414063 3.550782 10.574219.871094s3.550781-7.414062.871094-10.574219c-29.492188-34.785156-45.734376-79.085937-45.734376-124.738281 0-105.425781 85.800782-193.773438 194.425782-193.003906 105.148437.769531 191.59375 86.398437 191.59375 193.003906 0 167.59375-200.511719 255.007812-323.429688 142.269531-3.054687-2.800781-7.796875-2.59375-10.601562.457031-2.800782 3.054688-2.59375 7.800782.457031 10.601563 7.917969 7.257813 16.316406 13.847656 25.125 19.734375 13.796875 26.054688 26.582031 50.710938 24.964844 74.933594-.289063 4.335937 3.152343 8.003906 7.484375 8.003906h165.976562c4.351563 0 7.773438-3.683594 7.484375-8.003906-1.621093-24.269532 11.214844-48.96875 25.042969-75.078125 123.296875-82.640625 123.25-263.230469 0-345.835938zm-24.023438 359.769531c-8.578124 17.710938-15.445312 35.777344-16.109374 54.140626h-150.765626c-.664062-18.363282-7.53125-36.429688-16.109374-54.140626 57.664062 28.265626 125.53125 28.1875 182.984374 0zm0 0" data-original="#000000" class="active-path" data-old_color="#00cfbf" fill="#00cfbf"/><path d="m121.839844 234.855469c3.175781 2.664062 7.90625 2.246093 10.570312-.925781l55.441406-66.070313c10.527344-12.542969 29.816407-12.519531 40.324219 0l55.441407 66.070313c2.671874 3.183593 7.40625 3.578124 10.570312.925781 3.171875-2.664063 3.585938-7.398438.921875-10.570313l-55.4375-66.070312c-16.496094-19.65625-46.78125-19.699219-63.3125 0l-55.441406 66.070312c-2.664063 3.171875-2.25 7.90625.921875 10.570313zm0 0" data-original="#000000" class="active-path" data-old_color="#00cfbf" fill="#00cfbf"/><path d="m188.613281 285.71875c0 2.730469-2.214843 4.945312-4.945312 4.945312h-34.035157c-2.730468 0-4.945312-2.214843-4.945312-4.945312 0-2.066406 1.269531-3.839844 3.070312-4.578125 13.765626-6.089844 30.054688-17.425781 30.082032-28.976563.015625-6.78125-4.699219-10.042968-11.757813-10.042968-6.183593 0-10.675781 2.539062-11.519531 8.722656-.320312 2.351562-2.332031 4.164062-4.773438 4.164062-2.855468 0-5.101562-2.496093-4.785156-5.347656 1.179688-10.59375 8.875-17.425781 21.078125-17.425781 13.035157 0 22.273438 7.785156 22.257813 19.902344-.015625 11.441406-8.851563 20.675781-22.445313 28.640625h17.777344c2.726563 0 4.941406 2.214844 4.941406 4.941406zm0 0" data-original="#000000" class="active-path" data-old_color="#00cfbf" fill="#00cfbf"/><path d="m200.21875 300.613281c2.753906-3.917969 3.847656-6.753906 4.195312-10.816406.25-2.992187 2.761719-5.339844 5.820313-5.339844 3.226563 0 5.84375 2.617188 5.84375 5.84375 0 4.109375-5.027344 11.449219-9.570313 15.75-.746093.714844-1.761718 1.148438-2.875 1.148438-3.359374 0-5.363281-3.832031-3.414062-6.585938zm0 0" data-original="#000000" class="active-path" data-old_color="#00cfbf" fill="#00cfbf"/><path d="m249.820312 251.652344c11.804688 0 21.3125 8.878906 21.3125 19.921875 0 11.164062-10.238281 19.835937-20.71875 19.835937-15.167968 0-23.320312-13.375-23.320312-29.644531 0-16.375 7.75-29.648437 23.984375-29.648437 6.761719 0 12.054687 2.304687 16.320313 6.355468 3.230468 3.039063 1.167968 8.660156-3.453126 8.660156-1.261718 0-2.417968-.46875-3.300781-1.238281-2.765625-2.410156-6.167969-3.925781-9.566406-3.925781-7.40625 0-11.679687 5.808594-13.039063 13.824219 3.28125-2.585938 7.359376-4.140625 11.78125-4.140625zm-10.953124 19.902344c0 5.808593 4.882812 9.90625 11.296874 10.003906 5.851563-.191406 10.507813-4.59375 10.507813-10.003906 0-5.570313-4.867187-10.046876-10.902344-10.046876-6.039062 0-10.902343 4.476563-10.902343 10.046876zm0 0" data-original="#000000" class="active-path" data-old_color="#00cfbf" fill="#00cfbf"/><path d="m184.382812 367.578125c-2.210937 1.625-5.316406 1.148437-6.941406-1.058594l-11.042968-15.039062-7.082032 6.445312v5.527344c0 2.742187-2.222656 4.964844-4.964844 4.964844-2.742187 0-4.964843-2.222657-4.964843-4.964844v-47.996094c0-2.742187 2.222656-4.964843 4.964843-4.964843 2.742188 0 4.964844 2.222656 4.964844 4.964843v29.042969l17.664063-16.074219c2.027343-1.84375 5.167969-1.695312 7.015625.332031 1.84375 2.027344 1.695312 5.167969-.332032 7.011719l-9.882812 8.992188 11.664062 15.875c1.621094 2.210937 1.148438 5.320312-1.0625 6.941406zm0 0" data-original="#000000" class="active-path" data-old_color="#00cfbf" fill="#00cfbf"/><path d="m248.40625 326.527344c10.539062.019531 18.238281 7.878906 18.238281 17.589844v19.292968c0 2.773438-2.234375 4.925782-4.964843 4.964844-2.734376-.039062-4.96875-2.191406-4.96875-4.964844v-16.796875c0-6-4.632813-10.714843-10.339844-10.738281-5.710938.023438-10.34375 4.738281-10.34375 10.738281v16.820313c0 2.742187-2.226563 4.964844-4.96875 4.964844-2.738282 0-4.964844-2.222657-4.964844-4.964844v-16.796875c0-5.933594-4.613281-10.738281-10.339844-10.738281-5.730468 0-10.34375 4.804687-10.34375 10.738281v16.816406c0 2.742187-2.226562 4.964844-4.96875 4.964844-2.742187 0-4.964844-2.222657-4.964844-4.964844v-31.113281c0-2.742188 2.222657-4.964844 4.964844-4.964844 2.613282 0 4.753906 2.015625 4.953125 4.574219 3.230469-3.332031 7.78125-5.402344 12.839844-5.402344 5.882813 0 11.085937 2.808594 14.320313 7.140625 3.6875-4.335938 9.535156-7.148438 15.851562-7.160156zm0 0" data-original="#000000" class="active-path" data-old_color="#00cfbf" fill="#00cfbf"/></g> </svg>
