<?xml version="1.0"?>
<svg xmlns="http://www.w3.org/2000/svg" height="512px" viewBox="0 0 512.04104 512" width="512px" class=""><g><path d="m452.308594 110.953125c-2.300782.007813-4.503906-.9375-6.085938-2.609375-1.582031-1.5625-2.464844-3.699219-2.449218-5.921875v-17.066406c9.425781 0 17.066406-7.644531 17.066406-17.066407v-42.667968c0-14.140625-11.460938-25.6015628-25.597656-25.6015628h-136.535157c-14.136719 0-25.597656 11.4609378-25.597656 25.6015628v42.667968c0 9.421876 7.640625 17.066407 17.066406 17.066407v17.066406c0 4.710937-3.820312 8.53125-8.535156 8.53125-32.972656.039063-59.695313 26.761719-59.734375 59.734375v273.066406h-50.234375c15.777344-15.875 24.632813-37.351562 24.636719-59.734375-.210938-39.785156-27.695313-74.226562-66.441406-83.257812-12.464844-2.765625-25.386719-2.765625-37.855469 0-38.722657 9.054687-66.175781 43.492187-66.371094 83.257812-.023437 20.296875 7.261719 39.921875 20.523437 55.289063l-20.863281 5.589844c-18.222656 4.898437-29.019531 23.640624-24.121093 41.859374 4.898437 18.21875 23.640624 29.019532 41.859374 24.121094l63.566407-17c5.871093 11.121094 17.394531 18.097656 29.96875 18.140625h85.332031c7.175781-.011719 14.160156-2.308593 19.945312-6.550781 6.800782 4.289062 14.679688 6.5625 22.722657 6.550781h204.800781c23.550781-.027343 42.636719-19.113281 42.667969-42.664062v-298.667969c-.039063-32.972656-26.761719-59.695312-59.734375-59.734375zm-8.535156-85.332031v42.667968h-85.332032v-51.203124h76.800782c4.710937 0 8.53125 3.820312 8.53125 8.535156zm-102.398438-8.535156v51.203124h-17.066406v-51.203124zm-51.199219 8.535156c0-4.714844 3.820313-8.535156 8.53125-8.535156h8.535157v51.203124h-17.066407zm204.796875 392.53125h-256v-221.863282h256zm-392.472656 59.15625-14.4375 3.863281-8.859375-33.058594 32.964844-8.832031c4.207031-1.128906 8.683593-.601562 12.511719 1.46875h.074218c1.765625.964844 3.347656 2.238281 4.667969 3.753906-15.503906 3.351563-26.660156 16.941406-26.921875 32.804688zm76.742188-93.289063c0 23.328125-11.980469 45.019531-31.726563 57.4375-2.453125-5.257812-6.222656-9.796875-10.941406-13.175781v-107.519531c25.675781 10.558593 42.5 35.5 42.667969 63.257812zm-59.734376-67.683593v105.539062c-3.945312-.386719-7.929687-.074219-11.765624.921875l-5.300782 1.414063v-107.875c5.667969-.703126 11.398438-.703126 17.066406 0zm-76.800781 67.683593c.15625-27.769531 16.980469-52.730469 42.667969-63.289062v108.0625l-20.359375 5.453125c-14.234375-12.8125-22.34375-31.074219-22.308594-50.226563zm-4.085937 110.371094c-9.117188 2.457031-18.496094-2.941406-20.949219-12.058594-2.457031-9.113281 2.941406-18.492187 12.054687-20.949219l33-8.847656 8.847657 33.03125zm80.886718-16.503906c0-9.425781 7.640626-17.066407 17.066407-17.066407h34.132812v34.132813h-34.132812c-9.425781 0-17.066407-7.640625-17.066407-17.066406zm68.265626 17.066406v-34.132813h34.132812c9.425781 0 17.066406 7.640626 17.066406 17.066407s-7.640625 17.066406-17.066406 17.066406zm281.601562 0h-204.800781c-4.074219-.027344-8.085938-1.03125-11.691407-2.933594 7.425782-15.914062 1.371094-34.863281-13.910156-43.519531v-13.28125h256v34.136719c0 14.136719-11.460937 25.597656-25.597656 25.597656zm25.597656-315.734375h-256v-8.53125c.042969-23.546875 19.121094-42.625 42.667969-42.667969 14.140625 0 25.601563-11.460937 25.601563-25.597656v-17.066406h119.464843v17.066406c.070313 14.109375 11.492188 25.527344 25.601563 25.597656 23.550781.027344 42.636718 19.113281 42.664062 42.667969zm0 0" data-original="#000000" class="active-path" data-old_color="#00cfbf" fill="#00cfbf"/><path d="m321.808594 395.875c3.222656 3.320312 7.648437 5.203125 12.277344 5.210938h65.777343c4.628907-.007813 9.054688-1.890626 12.277344-5.210938l24.457031-25.371094c7.0625-7.324218 9.121094-18.132812 5.238282-27.539062-4.625-10.4375-15.128907-17.015625-26.539063-16.621094-4.652344-.074219-9.117187 1.832031-12.285156 5.238281l-17.65625 18.304688h-36.761719l-7.21875-7.484375v-70.363282l7.21875-7.484374h36.761719l14.394531 14.925781c7.054688 7.316406 17.773438 9.769531 27.308594 6.246093 10.589844-4.226562 17.5625-14.453124 17.621094-25.859374.234374-4.664063-1.503907-9.210938-4.789063-12.535157l-27.730469-28.765625c-3.226562-3.324218-7.664062-5.207031-12.296875-5.210937h-65.777343c-4.628907.007812-9.058594 1.890625-12.277344 5.222656l-26.847656 27.84375c-3.078126 3.171875-4.796876 7.421875-4.785157 11.84375v97.910156c-.011719 4.421875 1.707031 8.671875 4.785157 11.84375zm-14.566406-137.609375 26.84375-27.84375h65.777343l27.765625 28.398437c.277344 4.621094-2.296875 8.941407-6.492187 10.894532-3.183594 1.175781-6.757813.355468-9.105469-2.089844l-14.386719-14.925781c-3.226562-3.320313-7.65625-5.199219-12.289062-5.210938h-36.761719c-4.632812.007813-9.066406 1.890625-12.289062 5.222657l-7.210938 7.480468c-3.078125 3.175782-4.792969 7.425782-4.785156 11.847656v70.363282c-.007813 4.421875 1.707031 8.671875 4.785156 11.84375l7.210938 7.492187c3.226562 3.324219 7.65625 5.203125 12.289062 5.214844h36.761719c4.632812-.011719 9.0625-1.890625 12.289062-5.214844l17.277344-18.328125c4.609375-.46875 9.03125 1.9375 11.144531 6.058594 1.304688 3.128906.636719 6.730469-1.707031 9.183594l-24.496094 25.367187h-65.777343l-26.84375-27.84375zm0 0" data-original="#000000" class="active-path" data-old_color="#00cfbf" fill="#00cfbf"/></g> </svg>
