<?xml version="1.0" encoding="UTF-8" standalone="no"?>
<!DOCTYPE svg PUBLIC "-//W3C//DTD SVG 1.1//EN" "http://www.w3.org/Graphics/SVG/1.1/DTD/svg11.dtd">
<svg version="1.1" xmlns="http://www.w3.org/2000/svg" xmlns:xlink="http://www.w3.org/1999/xlink" preserveAspectRatio="xMidYMid meet" viewBox="0 0 60 60" width="60" height="60"><defs><path d="M60 30C60 46.56 46.56 60 30 60C13.44 60 0 46.56 0 30C0 13.44 13.44 0 30 0C46.56 0 60 13.44 60 30Z" id="bNIMiHaUF"></path><path d="M39.51 9.01L39.6 9.02L39.69 9.03L39.78 9.05L39.87 9.07L39.96 9.09L40.04 9.12L40.13 9.15L40.21 9.18L40.29 9.22L40.37 9.26L40.45 9.3L40.53 9.34L40.6 9.39L40.67 9.44L40.74 9.5L40.81 9.55L40.88 9.61L40.94 9.67L41 9.73L41.06 9.8L41.11 9.87L41.17 9.94L41.22 10.01L41.27 10.08L41.31 10.16L41.35 10.24L41.39 10.32L41.43 10.4L41.46 10.48L41.49 10.57L41.52 10.65L41.54 10.74L41.56 10.83L41.58 10.92L41.59 11.01L41.6 11.1L41.61 11.19L41.61 11.29L41.61 12.36L45.25 12.36L45.4 12.36L45.56 12.37L45.71 12.39L45.86 12.41L46.01 12.43L46.16 12.47L46.31 12.51L46.45 12.55L46.59 12.6L46.73 12.66L46.86 12.72L47 12.78L47.13 12.85L47.25 12.93L47.38 13.01L47.5 13.09L47.61 13.18L47.73 13.28L47.84 13.37L47.94 13.48L48.04 13.58L48.14 13.69L48.23 13.8L48.32 13.92L48.41 14.04L48.49 14.16L48.56 14.29L48.63 14.42L48.7 14.55L48.76 14.69L48.82 14.83L48.87 14.97L48.91 15.11L48.95 15.26L48.98 15.4L49.01 15.55L49.03 15.71L49.05 15.86L49.06 16.01L49.06 16.17L49.06 45.16L49.06 45.28L49.05 45.4L49.04 45.52L49.02 45.63L49 45.74L48.98 45.86L48.95 45.97L48.91 46.08L48.87 46.18L48.83 46.29L48.79 46.39L48.74 46.49L48.68 46.59L48.63 46.69L48.56 46.78L48.5 46.87L48.43 46.96L48.36 47.05L48.29 47.13L48.21 47.21L48.13 47.29L48.05 47.36L47.96 47.43L47.87 47.5L47.78 47.56L47.69 47.63L47.59 47.68L47.49 47.74L47.39 47.79L47.29 47.83L47.18 47.87L47.08 47.91L46.97 47.95L46.86 47.98L46.74 48L46.63 48.02L46.52 48.04L46.4 48.05L46.28 48.06L46.16 48.06L12.9 48.06L12.78 48.06L12.66 48.05L12.54 48.04L12.43 48.02L12.32 48L12.2 47.98L12.09 47.95L11.98 47.91L11.88 47.87L11.77 47.83L11.67 47.79L11.57 47.74L11.47 47.68L11.37 47.63L11.28 47.56L11.19 47.5L11.1 47.43L11.01 47.36L10.93 47.29L10.85 47.21L10.77 47.13L10.7 47.05L10.63 46.96L10.56 46.87L10.5 46.78L10.43 46.69L10.38 46.59L10.32 46.49L10.27 46.39L10.23 46.29L10.19 46.18L10.15 46.08L10.11 45.97L10.08 45.86L10.06 45.75L10.04 45.63L10.02 45.52L10.01 45.4L10 45.28L10 45.16L10 43.19L10 43.16L10 43.12L10.01 43.09L10.01 43.06L10.02 43.03L10.02 43L10.03 42.98L10.04 42.95L10.05 42.92L10.06 42.89L10.07 42.86L10.09 42.84L10.1 42.81L10.11 42.79L10.13 42.76L10.15 42.74L10.17 42.71L10.18 42.69L10.2 42.67L10.22 42.65L10.24 42.63L10.27 42.61L10.29 42.59L10.31 42.57L10.34 42.55L10.36 42.54L10.39 42.52L10.41 42.51L10.44 42.5L10.47 42.48L10.49 42.47L10.52 42.46L10.55 42.45L10.58 42.45L10.61 42.44L10.64 42.43L10.67 42.43L10.7 42.43L10.73 42.43L10.76 42.42L12.83 42.42L12.73 42.34L12.63 42.25L12.53 42.16L12.44 42.06L12.35 41.97L12.26 41.87L12.17 41.77L12.09 41.67L12 41.57L11.92 41.47L11.84 41.36L11.77 41.25L11.69 41.14L11.62 41.03L11.55 40.92L11.48 40.81L11.42 40.69L11.36 40.57L11.29 40.45L11.24 40.33L11.18 40.21L11.13 40.09L11.08 39.97L11.03 39.84L10.99 39.71L10.94 39.59L10.9 39.46L10.87 39.33L10.83 39.2L10.8 39.06L10.77 38.93L10.75 38.79L10.72 38.66L10.7 38.52L10.69 38.39L10.67 38.25L10.66 38.11L10.65 37.97L10.65 37.83L10.65 37.69L10.65 37.43L10.67 37.17L10.69 36.92L10.73 36.67L10.77 36.43L10.83 36.18L10.89 35.94L10.97 35.71L11.05 35.48L11.14 35.25L11.24 35.03L11.35 34.81L11.46 34.6L11.59 34.39L11.72 34.19L11.86 33.99L12 33.8L12.15 33.62L12.31 33.44L12.48 33.26L12.65 33.1L12.83 32.94L13.02 32.78L13.21 32.64L13.41 32.5L13.61 32.37L13.82 32.24L14.03 32.13L14.25 32.02L14.47 31.92L14.7 31.83L14.93 31.75L15.16 31.68L15.4 31.61L15.64 31.56L15.89 31.51L16.14 31.48L16.39 31.45L16.65 31.43L16.9 31.43L17.16 31.43L17.41 31.45L17.67 31.48L17.92 31.51L18.16 31.56L18.4 31.61L18.64 31.68L18.88 31.75L19.11 31.83L19.34 31.92L19.56 32.02L19.78 32.13L19.99 32.24L20.2 32.37L20.4 32.5L20.59 32.64L20.79 32.78L20.97 32.94L21.15 33.1L21.32 33.26L21.49 33.44L21.65 33.62L21.8 33.8L21.95 33.99L22.09 34.19L22.22 34.39L22.34 34.6L22.46 34.81L22.57 35.03L22.67 35.25L22.76 35.48L22.84 35.71L22.91 35.94L22.98 36.18L23.03 36.43L23.08 36.67L23.11 36.92L23.14 37.17L23.15 37.43L23.16 37.69L23.16 37.83L23.15 37.97L23.14 38.11L23.13 38.25L23.12 38.39L23.1 38.52L23.08 38.66L23.06 38.79L23.03 38.93L23.01 39.06L22.97 39.2L22.94 39.33L22.9 39.46L22.86 39.59L22.82 39.71L22.78 39.84L22.73 39.97L22.68 40.09L22.62 40.21L22.57 40.33L22.51 40.45L22.45 40.57L22.39 40.69L22.32 40.81L22.25 40.92L22.18 41.03L22.11 41.14L22.04 41.25L21.96 41.36L21.88 41.47L21.8 41.57L21.72 41.67L21.63 41.77L21.54 41.87L21.46 41.97L21.36 42.06L21.27 42.16L21.18 42.25L21.08 42.34L20.98 42.42L28.6 42.42L28.63 42.43L28.66 42.43L28.69 42.43L28.73 42.43L28.76 42.44L28.78 42.45L28.81 42.45L28.84 42.46L28.87 42.47L28.9 42.48L28.93 42.5L28.95 42.51L28.98 42.52L29 42.54L29.03 42.55L29.05 42.57L29.08 42.59L29.1 42.61L29.12 42.63L29.14 42.65L29.16 42.67L29.18 42.69L29.2 42.71L29.22 42.74L29.23 42.76L29.25 42.79L29.27 42.81L29.28 42.84L29.29 42.86L29.3 42.89L29.32 42.92L29.33 42.95L29.33 42.98L29.34 43L29.35 43.03L29.35 43.06L29.36 43.09L29.36 43.12L29.36 43.16L29.36 43.19L29.36 43.22L29.36 43.25L29.36 43.28L29.35 43.31L29.35 43.34L29.34 43.37L29.33 43.4L29.33 43.43L29.32 43.46L29.3 43.48L29.29 43.51L29.28 43.54L29.27 43.56L29.25 43.59L29.23 43.61L29.22 43.64L29.2 43.66L29.18 43.68L29.16 43.71L29.14 43.73L29.12 43.75L29.1 43.77L29.08 43.79L29.05 43.8L29.03 43.82L29 43.84L28.98 43.85L28.95 43.87L28.93 43.88L28.9 43.89L28.87 43.9L28.84 43.91L28.81 43.92L28.78 43.93L28.76 43.93L28.73 43.94L28.69 43.94L28.66 43.95L28.63 43.95L28.6 43.95L11.53 43.95L11.53 45.16L11.53 45.22L11.53 45.27L11.54 45.33L11.54 45.38L11.55 45.44L11.57 45.49L11.58 45.54L11.6 45.6L11.61 45.65L11.63 45.7L11.66 45.74L11.68 45.79L11.7 45.84L11.73 45.88L11.76 45.93L11.79 45.97L11.82 46.01L11.86 46.05L11.89 46.09L11.93 46.13L11.97 46.17L12.01 46.2L12.05 46.24L12.09 46.27L12.13 46.3L12.18 46.33L12.22 46.36L12.27 46.38L12.32 46.4L12.37 46.43L12.41 46.45L12.47 46.46L12.52 46.48L12.57 46.49L12.62 46.51L12.68 46.52L12.73 46.52L12.79 46.53L12.84 46.53L12.9 46.53L43.61 46.53L43.59 46.5L43.58 46.47L43.56 46.44L43.54 46.41L43.53 46.38L43.52 46.35L43.5 46.31L43.49 46.28L43.47 46.25L43.46 46.22L43.45 46.18L43.44 46.15L43.42 46.12L43.41 46.08L43.4 46.05L43.39 46.02L43.38 45.98L43.37 45.95L43.36 45.92L43.35 45.88L43.34 45.85L43.34 45.81L43.33 45.78L43.32 45.74L43.31 45.71L43.31 45.67L43.3 45.64L43.29 45.6L43.29 45.56L43.28 45.53L43.28 45.49L43.28 45.46L43.27 45.42L43.27 45.38L43.27 45.35L43.27 45.31L43.26 45.27L43.26 45.24L43.26 45.2L43.26 45.16L43.26 43.95L35.15 43.95L35.12 43.95L35.09 43.95L35.06 43.94L35.03 43.94L35 43.93L34.97 43.93L34.94 43.92L34.91 43.91L34.88 43.9L34.85 43.89L34.83 43.88L34.8 43.87L34.77 43.85L34.75 43.84L34.72 43.82L34.7 43.8L34.68 43.79L34.65 43.77L34.63 43.75L34.61 43.73L34.59 43.71L34.57 43.68L34.55 43.66L34.53 43.64L34.52 43.61L34.5 43.59L34.49 43.56L34.47 43.54L34.46 43.51L34.45 43.48L34.44 43.46L34.43 43.43L34.42 43.4L34.41 43.37L34.4 43.34L34.4 43.31L34.39 43.28L34.39 43.25L34.39 43.22L34.39 43.19L34.39 43.16L34.39 43.12L34.39 43.09L34.4 43.06L34.4 43.03L34.41 43L34.42 42.98L34.43 42.95L34.44 42.92L34.45 42.89L34.46 42.86L34.47 42.84L34.49 42.81L34.5 42.79L34.52 42.76L34.53 42.74L34.55 42.71L34.57 42.69L34.59 42.67L34.61 42.65L34.63 42.63L34.65 42.61L34.68 42.59L34.7 42.57L34.72 42.55L34.75 42.54L34.77 42.52L34.8 42.51L34.83 42.5L34.85 42.48L34.88 42.47L34.91 42.46L34.94 42.45L34.97 42.45L35 42.44L35.03 42.43L35.06 42.43L35.09 42.43L35.12 42.43L35.15 42.42L44.02 42.42L44.06 42.43L44.09 42.43L44.12 42.43L44.15 42.43L44.18 42.44L44.21 42.45L44.24 42.45L44.27 42.46L44.29 42.47L44.32 42.48L44.35 42.5L44.38 42.51L44.4 42.52L44.43 42.54L44.45 42.55L44.48 42.57L44.5 42.59L44.52 42.61L44.54 42.63L44.56 42.65L44.58 42.67L44.6 42.69L44.62 42.71L44.64 42.74L44.66 42.76L44.67 42.79L44.69 42.81L44.7 42.84L44.72 42.86L44.73 42.89L44.74 42.92L44.75 42.95L44.76 42.98L44.77 43L44.77 43.03L44.78 43.06L44.78 43.09L44.78 43.12L44.79 43.16L44.79 43.19L44.79 45.16L44.79 45.22L44.79 45.27L44.8 45.33L44.81 45.38L44.82 45.44L44.83 45.49L44.84 45.54L44.86 45.59L44.88 45.65L44.9 45.7L44.92 45.74L44.94 45.79L44.97 45.84L44.99 45.88L45.02 45.93L45.05 45.97L45.08 46.01L45.12 46.05L45.15 46.09L45.19 46.13L45.23 46.17L45.27 46.2L45.31 46.24L45.35 46.27L45.39 46.3L45.44 46.33L45.48 46.36L45.53 46.38L45.58 46.4L45.63 46.43L45.68 46.45L45.73 46.46L45.78 46.48L45.83 46.49L45.88 46.51L45.94 46.52L45.99 46.52L46.05 46.53L46.1 46.53L46.16 46.53L46.22 46.53L46.27 46.53L46.33 46.52L46.38 46.52L46.44 46.51L46.49 46.49L46.54 46.48L46.59 46.46L46.65 46.45L46.7 46.43L46.74 46.4L46.79 46.38L46.84 46.36L46.88 46.33L46.93 46.3L46.97 46.27L47.01 46.24L47.05 46.2L47.09 46.17L47.13 46.13L47.17 46.09L47.2 46.05L47.24 46.01L47.27 45.97L47.3 45.93L47.33 45.88L47.36 45.84L47.38 45.79L47.4 45.74L47.43 45.7L47.45 45.65L47.46 45.59L47.48 45.54L47.49 45.49L47.51 45.44L47.52 45.38L47.52 45.33L47.53 45.27L47.53 45.22L47.53 45.16L47.53 16.17L47.53 16.08L47.53 15.98L47.52 15.89L47.5 15.8L47.49 15.71L47.47 15.62L47.44 15.53L47.42 15.45L47.39 15.36L47.35 15.28L47.32 15.2L47.28 15.12L47.24 15.04L47.19 14.97L47.14 14.89L47.09 14.82L47.04 14.75L46.98 14.68L46.92 14.62L46.86 14.55L46.8 14.49L46.73 14.43L46.67 14.38L46.6 14.32L46.52 14.27L46.45 14.23L46.37 14.18L46.3 14.14L46.22 14.1L46.14 14.06L46.05 14.03L45.97 14L45.88 13.97L45.8 13.95L45.71 13.93L45.62 13.91L45.53 13.9L45.43 13.89L45.34 13.88L45.25 13.88L41.61 13.88L41.61 14.84L41.61 14.93L41.6 15.02L41.59 15.12L41.58 15.21L41.56 15.3L41.54 15.39L41.52 15.47L41.49 15.56L41.46 15.64L41.43 15.73L41.39 15.81L41.35 15.89L41.31 15.96L41.27 16.04L41.22 16.11L41.17 16.19L41.11 16.26L41.06 16.32L41 16.39L40.94 16.45L40.88 16.51L40.81 16.57L40.74 16.63L40.67 16.68L40.6 16.73L40.53 16.78L40.45 16.83L40.37 16.87L40.29 16.91L40.21 16.94L40.13 16.98L40.04 17.01L39.96 17.03L39.87 17.06L39.78 17.08L39.69 17.09L39.6 17.11L39.51 17.12L39.42 17.12L39.32 17.12L39.23 17.12L39.13 17.12L39.04 17.11L38.95 17.09L38.86 17.08L38.77 17.06L38.68 17.03L38.6 17.01L38.51 16.98L38.43 16.94L38.35 16.91L38.27 16.87L38.19 16.83L38.12 16.78L38.04 16.73L37.97 16.68L37.9 16.63L37.83 16.57L37.77 16.51L37.7 16.45L37.64 16.39L37.58 16.32L37.53 16.26L37.47 16.19L37.42 16.11L37.38 16.04L37.33 15.96L37.29 15.89L37.25 15.81L37.21 15.73L37.18 15.64L37.15 15.56L37.12 15.47L37.1 15.39L37.08 15.3L37.06 15.21L37.05 15.12L37.04 15.02L37.03 14.93L37.03 14.84L37.03 13.88L24.22 13.88L24.22 14.84L24.21 14.93L24.21 15.02L24.2 15.12L24.19 15.21L24.17 15.3L24.15 15.39L24.13 15.47L24.1 15.56L24.07 15.64L24.04 15.73L24 15.81L23.96 15.89L23.92 15.96L23.87 16.04L23.82 16.11L23.77 16.19L23.72 16.26L23.66 16.32L23.61 16.39L23.54 16.45L23.48 16.51L23.42 16.57L23.35 16.63L23.28 16.68L23.21 16.73L23.13 16.78L23.06 16.83L22.98 16.87L22.9 16.91L22.82 16.94L22.73 16.98L22.65 17.01L22.56 17.03L22.48 17.06L22.39 17.08L22.3 17.09L22.21 17.11L22.11 17.12L22.02 17.12L21.93 17.12L21.83 17.12L21.74 17.12L21.65 17.11L21.56 17.09L21.47 17.08L21.38 17.06L21.29 17.03L21.2 17.01L21.12 16.98L21.04 16.94L20.96 16.91L20.88 16.87L20.8 16.83L20.72 16.78L20.65 16.73L20.58 16.68L20.51 16.63L20.44 16.57L20.37 16.51L20.31 16.45L20.25 16.39L20.19 16.32L20.13 16.26L20.08 16.19L20.03 16.11L19.98 16.04L19.94 15.96L19.89 15.89L19.85 15.81L19.82 15.73L19.78 15.64L19.75 15.56L19.73 15.47L19.7 15.39L19.68 15.3L19.67 15.21L19.65 15.12L19.65 15.02L19.64 14.93L19.64 14.84L19.64 13.85L19.63 13.86L19.62 13.86L19.61 13.86L19.6 13.86L19.58 13.87L19.58 13.87L19.56 13.87L19.55 13.87L19.53 13.88L19.52 13.88L19.5 13.88L19.49 13.88L19.48 13.88L19.46 13.88L19.45 13.88L19.43 13.88L16.39 13.88L16.3 13.88L16.21 13.89L16.12 13.9L16.02 13.91L15.93 13.93L15.85 13.95L15.76 13.97L15.67 14L15.59 14.03L15.5 14.06L15.42 14.1L15.34 14.14L15.27 14.18L15.19 14.23L15.12 14.27L15.04 14.32L14.97 14.38L14.91 14.43L14.84 14.49L14.78 14.55L14.72 14.62L14.66 14.68L14.6 14.75L14.55 14.82L14.5 14.89L14.45 14.97L14.4 15.04L14.36 15.12L14.32 15.2L14.29 15.28L14.25 15.36L14.22 15.45L14.2 15.53L14.17 15.62L14.15 15.71L14.14 15.8L14.12 15.89L14.11 15.98L14.11 16.08L14.11 16.17L14.11 18.69L41.61 18.69L41.64 18.69L41.67 18.69L41.7 18.69L41.73 18.7L41.76 18.7L41.79 18.71L41.82 18.72L41.85 18.73L41.88 18.74L41.91 18.75L41.93 18.76L41.96 18.77L41.99 18.79L42.01 18.8L42.04 18.82L42.06 18.84L42.08 18.85L42.11 18.87L42.13 18.89L42.15 18.91L42.17 18.93L42.19 18.96L42.21 18.98L42.23 19L42.24 19.03L42.26 19.05L42.27 19.08L42.29 19.1L42.3 19.13L42.31 19.15L42.32 19.18L42.33 19.21L42.34 19.24L42.35 19.27L42.36 19.3L42.36 19.33L42.37 19.36L42.37 19.39L42.37 19.42L42.37 19.45L42.37 19.48L42.37 19.51L42.37 19.55L42.36 19.58L42.36 19.61L42.35 19.64L42.34 19.66L42.33 19.69L42.32 19.72L42.31 19.75L42.3 19.78L42.29 19.8L42.27 19.83L42.26 19.85L42.24 19.88L42.23 19.9L42.21 19.93L42.19 19.95L42.17 19.97L42.15 19.99L42.13 20.01L42.11 20.03L42.08 20.05L42.06 20.07L42.04 20.08L42.01 20.1L41.99 20.12L41.96 20.13L41.93 20.14L41.91 20.15L41.88 20.17L41.85 20.18L41.82 20.18L41.79 20.19L41.76 20.2L41.73 20.2L41.7 20.21L41.67 20.21L41.64 20.21L41.61 20.21L14.11 20.21L14.11 29.17L14.11 29.2L14.1 29.23L14.1 29.26L14.1 29.29L14.09 29.32L14.08 29.35L14.08 29.38L14.07 29.41L14.06 29.44L14.05 29.46L14.03 29.49L14.02 29.52L14.01 29.54L13.99 29.57L13.98 29.59L13.96 29.62L13.94 29.64L13.92 29.66L13.9 29.68L13.88 29.71L13.86 29.73L13.84 29.75L13.82 29.76L13.79 29.78L13.77 29.8L13.75 29.81L13.72 29.83L13.69 29.84L13.67 29.86L13.64 29.87L13.61 29.88L13.58 29.89L13.56 29.9L13.53 29.91L13.5 29.91L13.47 29.92L13.44 29.92L13.41 29.93L13.37 29.93L13.34 29.93L13.31 29.93L13.28 29.93L13.25 29.92L13.22 29.92L13.19 29.91L13.16 29.91L13.13 29.9L13.1 29.89L13.07 29.88L13.05 29.87L13.02 29.86L12.99 29.84L12.97 29.83L12.94 29.81L12.92 29.8L12.89 29.78L12.87 29.76L12.85 29.75L12.82 29.73L12.8 29.71L12.78 29.68L12.76 29.66L12.75 29.64L12.73 29.62L12.71 29.59L12.69 29.57L12.68 29.54L12.67 29.52L12.65 29.49L12.64 29.46L12.63 29.44L12.62 29.41L12.61 29.38L12.6 29.35L12.6 29.32L12.59 29.29L12.59 29.26L12.58 29.23L12.58 29.2L12.58 29.17L12.58 16.17L12.58 16.01L12.59 15.86L12.61 15.71L12.63 15.55L12.66 15.4L12.69 15.26L12.73 15.11L12.78 14.97L12.83 14.83L12.88 14.69L12.94 14.55L13.01 14.42L13.08 14.29L13.15 14.16L13.23 14.04L13.32 13.92L13.41 13.8L13.5 13.69L13.6 13.58L13.7 13.48L13.8 13.37L13.91 13.28L14.03 13.18L14.14 13.09L14.26 13.01L14.39 12.93L14.51 12.85L14.64 12.78L14.78 12.72L14.91 12.66L15.05 12.6L15.19 12.55L15.33 12.51L15.48 12.47L15.63 12.43L15.78 12.41L15.93 12.39L16.08 12.37L16.24 12.36L16.39 12.36L19.43 12.36L19.45 12.36L19.46 12.36L19.48 12.36L19.49 12.36L19.5 12.36L19.52 12.36L19.53 12.36L19.55 12.37L19.56 12.37L19.58 12.37L19.58 12.37L19.59 12.37L19.6 12.38L19.62 12.38L19.62 12.38L19.64 12.38L19.64 11.29L19.64 11.19L19.65 11.1L19.65 11.01L19.67 10.92L19.68 10.83L19.7 10.74L19.73 10.65L19.75 10.57L19.78 10.48L19.82 10.4L19.85 10.32L19.89 10.24L19.94 10.16L19.98 10.08L20.03 10.01L20.08 9.94L20.13 9.87L20.19 9.8L20.25 9.73L20.31 9.67L20.37 9.61L20.44 9.55L20.51 9.5L20.58 9.44L20.65 9.39L20.72 9.34L20.8 9.3L20.88 9.26L20.96 9.22L21.04 9.18L21.12 9.15L21.2 9.12L21.29 9.09L21.38 9.07L21.47 9.05L21.56 9.03L21.65 9.02L21.74 9.01L21.83 9L21.93 9L22.02 9L22.11 9.01L22.21 9.02L22.3 9.03L22.39 9.05L22.48 9.07L22.56 9.09L22.65 9.12L22.73 9.15L22.82 9.18L22.9 9.22L22.98 9.26L23.06 9.3L23.13 9.34L23.21 9.39L23.28 9.44L23.35 9.5L23.42 9.55L23.48 9.61L23.54 9.67L23.61 9.73L23.66 9.8L23.72 9.87L23.77 9.94L23.82 10.01L23.87 10.08L23.92 10.16L23.96 10.24L24 10.32L24.04 10.4L24.07 10.48L24.1 10.57L24.13 10.65L24.15 10.74L24.17 10.83L24.19 10.92L24.2 11.01L24.21 11.1L24.21 11.19L24.22 11.29L24.22 12.36L37.03 12.36L37.03 11.29L37.03 11.19L37.04 11.1L37.05 11.01L37.06 10.92L37.08 10.83L37.1 10.74L37.12 10.65L37.15 10.57L37.18 10.48L37.21 10.4L37.25 10.32L37.29 10.24L37.33 10.16L37.38 10.08L37.42 10.01L37.47 9.94L37.53 9.87L37.58 9.8L37.64 9.73L37.7 9.67L37.77 9.61L37.83 9.55L37.9 9.5L37.97 9.44L38.04 9.39L38.12 9.34L38.19 9.3L38.27 9.26L38.35 9.22L38.43 9.18L38.51 9.15L38.6 9.12L38.68 9.09L38.77 9.07L38.86 9.05L38.95 9.03L39.04 9.02L39.13 9.01L39.23 9L39.32 9L39.42 9L39.51 9.01ZM14.11 33.87L13.09 34.89L12.41 36.19L12.17 37.69L12.41 39.18L13.09 40.48L14.11 41.5L15.41 42.17L16.9 42.42L18.4 42.17L19.69 41.5L20.72 40.48L21.39 39.18L21.63 37.69L21.39 36.19L20.72 34.89L19.69 33.87L18.4 33.2L16.9 32.96L15.41 33.2L14.11 33.87ZM21.39 10.75L21.22 10.99L21.16 11.29L21.16 14.84L21.22 15.13L21.39 15.38L21.63 15.54L21.93 15.6L22.13 15.55L22.33 15.41L22.51 15.17L22.69 14.84L22.69 11.29L22.63 10.99L22.47 10.75L22.22 10.59L21.93 10.53L21.63 10.59L21.39 10.75ZM38.78 10.75L38.62 10.99L38.56 11.29L38.56 14.84L38.62 15.13L38.78 15.38L39.02 15.54L39.32 15.6L39.53 15.55L39.72 15.41L39.91 15.17L40.08 14.84L40.08 11.29L40.02 10.99L39.86 10.75L39.62 10.59L39.32 10.53L39.02 10.59L38.78 10.75Z" id="b4k9dL36EL"></path><path d="M45.19 18.69C44.99 18.69 44.79 18.77 44.65 18.91C44.51 19.05 44.43 19.25 44.43 19.45C44.43 19.65 44.51 19.85 44.65 19.99C44.79 20.13 44.99 20.21 45.19 20.21C45.39 20.21 45.59 20.13 45.73 19.99C45.87 19.85 45.95 19.65 45.95 19.45C45.95 19.25 45.87 19.05 45.73 18.91C45.59 18.77 45.39 18.69 45.19 18.69Z" id="dfXshiJAt"></path><path d="M32.24 42.43C32.04 42.43 31.85 42.51 31.71 42.65C31.56 42.79 31.48 42.99 31.48 43.19C31.48 43.39 31.56 43.58 31.71 43.73C31.85 43.87 32.04 43.95 32.24 43.95C32.45 43.95 32.64 43.87 32.78 43.73C32.93 43.58 33.01 43.39 33.01 43.19C33.01 42.99 32.93 42.79 32.78 42.65C32.64 42.51 32.45 42.43 32.24 42.43Z" id="b3Z0AuEVZ"></path><path d="M29.31 33.04L29.93 33.96L30.16 35.09L29.93 36.22L29.31 37.14L28.39 37.76L27.26 37.99L26.13 37.76L25.21 37.14L24.59 36.22L24.36 35.09L24.59 33.96L25.21 33.04L26.13 32.42L27.26 32.19L28.39 32.42L29.31 33.04ZM26.29 34.12L26 34.56L25.89 35.09L26 35.63L26.29 36.06L26.73 36.36L27.26 36.46L27.79 36.36L28.23 36.06L28.53 35.63L28.63 35.09L28.53 34.56L28.23 34.12L27.79 33.83L27.26 33.72L26.73 33.83L26.29 34.12Z" id="a5LGZtbvV9"></path><path d="M36.43 33.04L37.05 33.96L37.28 35.09L37.05 36.22L36.43 37.14L35.51 37.76L34.38 37.99L33.25 37.76L32.33 37.14L31.71 36.22L31.48 35.09L31.71 33.96L32.33 33.04L33.25 32.42L34.38 32.19L35.51 32.42L36.43 33.04ZM33.41 34.12L33.12 34.56L33.01 35.09L33.12 35.63L33.41 36.06L33.85 36.36L34.38 36.46L34.91 36.36L35.35 36.06L35.65 35.63L35.75 35.09L35.65 34.56L35.35 34.12L34.91 33.83L34.38 33.72L33.85 33.83L33.41 34.12Z" id="a1tNCe7ej7"></path><path d="M43.55 33.04L44.17 33.96L44.4 35.09L44.17 36.22L43.55 37.14L42.63 37.76L41.5 37.99L40.37 37.76L39.45 37.14L38.83 36.22L38.6 35.09L38.83 33.96L39.45 33.04L40.37 32.42L41.5 32.19L42.63 32.42L43.55 33.04ZM40.53 34.12L40.24 34.56L40.13 35.09L40.24 35.63L40.53 36.06L40.97 36.36L41.5 36.46L42.04 36.36L42.47 36.06L42.77 35.63L42.87 35.09L42.77 34.56L42.47 34.12L42.04 33.83L41.5 33.72L40.97 33.83L40.53 34.12Z" id="b3VJSnlCT1"></path><path d="M22.19 25.11L22.81 26.03L23.04 27.16L22.81 28.28L22.19 29.21L21.27 29.83L20.14 30.06L19.01 29.83L18.09 29.21L17.47 28.28L17.24 27.16L17.47 26.03L18.09 25.11L19.01 24.49L20.14 24.26L21.27 24.49L22.19 25.11ZM19.17 26.19L18.87 26.62L18.77 27.16L18.87 27.69L19.17 28.13L19.61 28.42L20.14 28.53L20.67 28.42L21.11 28.13L21.41 27.69L21.51 27.16L21.41 26.62L21.11 26.19L20.67 25.89L20.14 25.78L19.61 25.89L19.17 26.19Z" id="c1Bo9ohjeu"></path><path d="M36.43 25.11L37.05 26.03L37.28 27.16L37.05 28.28L36.43 29.21L35.51 29.83L34.38 30.06L33.25 29.83L32.33 29.21L31.71 28.28L31.48 27.16L31.71 26.03L32.33 25.11L33.25 24.49L34.38 24.26L35.51 24.49L36.43 25.11ZM33.41 26.19L33.12 26.62L33.01 27.16L33.12 27.69L33.41 28.13L33.85 28.42L34.38 28.53L34.91 28.42L35.35 28.13L35.65 27.69L35.75 27.16L35.65 26.62L35.35 26.19L34.91 25.89L34.38 25.78L33.85 25.89L33.41 26.19Z" id="d75YOOEmGF"></path><path d="M43.55 25.11L44.17 26.03L44.4 27.16L44.17 28.28L43.55 29.21L42.63 29.83L41.5 30.06L40.37 29.83L39.45 29.21L38.83 28.28L38.6 27.16L38.83 26.03L39.45 25.11L40.37 24.49L41.5 24.26L42.63 24.49L43.55 25.11ZM40.53 26.19L40.24 26.62L40.13 27.16L40.24 27.69L40.53 28.13L40.97 28.42L41.5 28.53L42.04 28.42L42.47 28.13L42.77 27.69L42.87 27.16L42.77 26.62L42.47 26.19L42.04 25.89L41.5 25.78L40.97 25.89L40.53 26.19Z" id="a3ZnWWVbNi"></path><path d="M29.31 25.11L29.93 26.03L30.16 27.16L29.93 28.28L29.31 29.21L28.39 29.83L27.26 30.06L26.13 29.83L25.21 29.21L24.59 28.28L24.36 27.16L24.59 26.03L25.21 25.11L26.13 24.49L27.26 24.26L28.39 24.49L29.31 25.11ZM26.29 26.19L26 26.62L25.89 27.16L26 27.69L26.29 28.13L26.73 28.42L27.26 28.53L27.79 28.42L28.23 28.13L28.53 27.69L28.63 27.16L28.53 26.62L28.23 26.19L27.79 25.89L27.26 25.78L26.73 25.89L26.29 26.19Z" id="aj6qNZGl3"></path><path d="M18.54 35.83C18.38 35.99 17.55 36.82 16.06 38.31C15.55 37.8 15.26 37.52 15.21 37.46C14.91 37.16 14.43 37.16 14.13 37.46C13.83 37.76 13.83 38.24 14.13 38.54C14.27 38.68 15.38 39.79 15.52 39.93C15.66 40.07 15.85 40.15 16.06 40.15C16.26 40.15 16.45 40.07 16.6 39.93C16.9 39.63 19.32 37.21 19.62 36.9C19.92 36.61 19.92 36.12 19.62 35.83C19.32 35.53 18.84 35.53 18.54 35.83Z" id="a4BQ7vwThJ"></path></defs><g><g><g><g><use xlink:href="#bNIMiHaUF" opacity="1" fill="#00cfbf" fill-opacity="1"></use></g><g><use xlink:href="#b4k9dL36EL" opacity="1" fill="#ffffff" fill-opacity="1"></use><g><use xlink:href="#b4k9dL36EL" opacity="1" fill-opacity="0" stroke="#000000" stroke-width="1" stroke-opacity="0"></use></g></g><g><use xlink:href="#dfXshiJAt" opacity="1" fill="#ffffff" fill-opacity="1"></use><g><use xlink:href="#dfXshiJAt" opacity="1" fill-opacity="0" stroke="#000000" stroke-width="1" stroke-opacity="0"></use></g></g><g><use xlink:href="#b3Z0AuEVZ" opacity="1" fill="#ffffff" fill-opacity="1"></use><g><use xlink:href="#b3Z0AuEVZ" opacity="1" fill-opacity="0" stroke="#000000" stroke-width="1" stroke-opacity="0"></use></g></g><g><use xlink:href="#a5LGZtbvV9" opacity="1" fill="#ffffff" fill-opacity="1"></use><g><use xlink:href="#a5LGZtbvV9" opacity="1" fill-opacity="0" stroke="#000000" stroke-width="1" stroke-opacity="0"></use></g></g><g><use xlink:href="#a1tNCe7ej7" opacity="1" fill="#ffffff" fill-opacity="1"></use><g><use xlink:href="#a1tNCe7ej7" opacity="1" fill-opacity="0" stroke="#000000" stroke-width="1" stroke-opacity="0"></use></g></g><g><use xlink:href="#b3VJSnlCT1" opacity="1" fill="#ffffff" fill-opacity="1"></use><g><use xlink:href="#b3VJSnlCT1" opacity="1" fill-opacity="0" stroke="#000000" stroke-width="1" stroke-opacity="0"></use></g></g><g><use xlink:href="#c1Bo9ohjeu" opacity="1" fill="#ffffff" fill-opacity="1"></use><g><use xlink:href="#c1Bo9ohjeu" opacity="1" fill-opacity="0" stroke="#000000" stroke-width="1" stroke-opacity="0"></use></g></g><g><use xlink:href="#d75YOOEmGF" opacity="1" fill="#ffffff" fill-opacity="1"></use><g><use xlink:href="#d75YOOEmGF" opacity="1" fill-opacity="0" stroke="#000000" stroke-width="1" stroke-opacity="0"></use></g></g><g><use xlink:href="#a3ZnWWVbNi" opacity="1" fill="#ffffff" fill-opacity="1"></use><g><use xlink:href="#a3ZnWWVbNi" opacity="1" fill-opacity="0" stroke="#000000" stroke-width="1" stroke-opacity="0"></use></g></g><g><use xlink:href="#aj6qNZGl3" opacity="1" fill="#ffffff" fill-opacity="1"></use><g><use xlink:href="#aj6qNZGl3" opacity="1" fill-opacity="0" stroke="#000000" stroke-width="1" stroke-opacity="0"></use></g></g><g><use xlink:href="#a4BQ7vwThJ" opacity="1" fill="#ffffff" fill-opacity="1"></use><g><use xlink:href="#a4BQ7vwThJ" opacity="1" fill-opacity="0" stroke="#000000" stroke-width="1" stroke-opacity="0"></use></g></g></g></g></g></svg>