<?xml version="1.0" encoding="UTF-8" standalone="no"?>
<!DOCTYPE svg PUBLIC "-//W3C//DTD SVG 1.1//EN" "http://www.w3.org/Graphics/SVG/1.1/DTD/svg11.dtd">
<svg version="1.1" xmlns="http://www.w3.org/2000/svg" xmlns:xlink="http://www.w3.org/1999/xlink" preserveAspectRatio="xMidYMid meet" viewBox="0 0 60 60" width="60" height="60"><defs><path d="M60 30C60 46.56 46.56 60 30 60C13.44 60 0 46.56 0 30C0 13.44 13.44 0 30 0C46.56 0 60 13.44 60 30Z" id="a1V7033cU"></path><path d="M47.16 19.49L47.48 19.69L47.79 19.9L48.09 20.12L48.39 20.34L48.68 20.56L48.96 20.79L49.23 21.02L49.5 21.26L49.76 21.51L50.01 21.75L50.26 22.01L50.5 22.26L50.73 22.53L50.95 22.79L51.17 23.07L51.38 23.34L51.58 23.62L51.78 23.91L51.96 24.2L52.14 24.49L52.3 24.78L52.46 25.07L52.6 25.37L52.73 25.66L52.86 25.96L52.97 26.27L53.08 26.57L53.17 26.88L53.26 27.19L53.33 27.5L53.4 27.81L53.45 28.12L53.5 28.44L53.53 28.76L53.56 29.08L53.57 29.41L53.58 29.73L53.57 30.05L53.56 30.36L53.53 30.68L53.5 30.99L53.46 31.3L53.41 31.61L53.34 31.91L53.27 32.21L53.19 32.51L53.1 32.81L53 33.11L52.9 33.41L52.78 33.7L52.65 33.99L52.51 34.28L52.37 34.56L52.21 34.85L52.05 35.13L51.87 35.41L51.69 35.69L51.5 35.97L51.3 36.24L51.09 36.5L50.88 36.77L50.66 37.03L50.43 37.28L50.2 37.53L49.96 37.77L49.71 38.01L49.45 38.25L49.19 38.48L48.92 38.71L48.65 38.93L48.36 39.15L48.07 39.37L47.77 39.58L47.47 39.79L47.16 39.99L46.84 40.19L46.51 40.38L46.54 40.44L46.57 40.51L46.59 40.57L46.62 40.63L46.65 40.69L46.67 40.75L46.7 40.81L46.73 40.87L46.76 40.93L46.78 40.99L46.81 41.05L46.84 41.11L46.86 41.16L46.89 41.22L46.92 41.28L46.95 41.33L46.98 41.39L47 41.44L47.03 41.49L47.06 41.55L47.09 41.6L47.12 41.65L47.14 41.71L47.17 41.76L47.2 41.81L47.24 41.86L47.27 41.91L47.3 41.97L47.33 42.02L47.36 42.07L47.4 42.12L47.43 42.17L47.47 42.22L47.5 42.27L47.54 42.32L47.57 42.37L47.61 42.42L47.65 42.47L47.68 42.52L47.72 42.57L47.76 42.62L47.8 42.67L47.83 42.71L47.87 42.76L47.9 42.8L47.94 42.84L47.97 42.89L48 42.93L48.03 42.97L48.06 43.01L48.09 43.05L48.12 43.08L48.15 43.12L48.18 43.15L48.2 43.19L48.23 43.22L48.25 43.25L48.28 43.28L48.3 43.31L48.32 43.34L48.34 43.37L48.36 43.4L48.39 43.43L48.42 43.46L48.44 43.49L48.47 43.53L48.5 43.56L48.53 43.6L48.56 43.64L48.6 43.67L48.63 43.71L48.67 43.75L48.71 43.8L48.75 43.84L48.79 43.88L48.83 43.93L48.87 43.98L48.92 44.02L48.96 44.07L49.01 44.12L49.06 44.17L49.1 44.22L49.15 44.27L49.19 44.31L49.23 44.35L49.27 44.39L49.3 44.43L49.34 44.47L49.37 44.51L49.4 44.54L49.43 44.57L49.46 44.6L49.48 44.63L49.51 44.66L49.53 44.68L49.55 44.71L49.57 44.73L49.59 44.75L49.61 44.77L49.62 44.79L49.62 44.79L49.63 44.8L49.64 44.81L49.65 44.82L49.67 44.84L49.68 44.85L49.7 44.87L49.71 44.89L49.73 44.91L49.73 44.91L49.76 44.94L49.78 44.96L49.8 44.98L49.81 45L49.82 45.01L49.83 45.02L49.84 45.03L49.85 45.04L49.86 45.05L49.86 45.06L49.87 45.06L49.87 45.07L49.88 45.07L49.88 45.08L49.89 45.08L49.89 45.09L49.9 45.1L49.91 45.12L49.93 45.14L49.94 45.15L49.95 45.17L49.96 45.19L49.98 45.21L49.99 45.22L49.99 45.23L50 45.25L50.01 45.25L50.02 45.27L50.02 45.27L50.02 45.28L50.03 45.29L50.03 45.29L50.04 45.3L50.04 45.31L50.04 45.32L50.11 45.45L50.12 45.47L50.14 45.53L50.15 45.56L50.16 45.61L50.17 45.62L50.17 45.64L50.18 45.65L50.18 45.67L50.18 45.68L50.19 45.69L50.19 45.7L50.19 45.71L50.19 45.72L50.19 45.73L50.19 45.74L50.19 45.75L50.19 45.75L50.19 45.76L50.19 45.76L50.19 45.77L50.19 45.77L50.18 45.78L50.18 45.78L50.17 45.78L50.17 45.78L50.17 45.79L50.16 45.79L50.16 45.8L50.16 45.8L50.16 45.81L50.15 45.81L50.15 45.82L50.15 45.83L50.15 45.84L50.15 45.85L50.15 45.86L50.15 45.87L50.15 45.88L50.15 45.9L50.15 45.91L50.15 45.92L50.15 45.94L50.15 45.95L50.14 45.99L50.13 46.03L50.12 46.06L50.11 46.1L50.1 46.13L50.09 46.16L50.07 46.19L50.06 46.22L50.04 46.26L50.02 46.28L50.01 46.31L49.99 46.34L49.97 46.37L49.95 46.4L49.93 46.42L49.9 46.45L49.88 46.47L49.86 46.49L49.83 46.52L49.81 46.54L49.78 46.56L49.75 46.58L49.72 46.6L49.7 46.61L49.67 46.63L49.64 46.64L49.61 46.66L49.58 46.67L49.56 46.68L49.53 46.69L49.5 46.7L49.47 46.71L49.44 46.71L49.41 46.72L49.38 46.72L49.35 46.72L49.32 46.73L49.28 46.73L49.25 46.72L49.22 46.72L49.09 46.7L48.96 46.68L48.83 46.67L48.7 46.65L48.58 46.63L48.46 46.61L48.34 46.59L48.22 46.57L48.1 46.54L47.99 46.52L47.87 46.5L47.76 46.48L47.65 46.46L47.54 46.44L47.44 46.41L47.34 46.39L47.23 46.37L47.13 46.34L47.03 46.32L46.94 46.3L46.53 46.19L46.13 46.07L45.73 45.95L45.33 45.82L44.94 45.69L44.56 45.55L44.17 45.4L43.79 45.24L43.42 45.08L43.05 44.92L42.68 44.74L42.32 44.56L41.96 44.38L41.6 44.19L41.25 43.99L40.91 43.78L40.56 43.57L40.22 43.35L39.89 43.13L39.56 42.9L39.32 42.94L39.08 42.98L38.84 43.02L38.61 43.05L38.37 43.08L38.13 43.12L37.9 43.14L37.66 43.17L37.43 43.2L37.19 43.22L36.96 43.24L36.73 43.26L36.5 43.27L36.26 43.29L36.03 43.3L35.8 43.31L35.57 43.31L35.34 43.32L35.11 43.32L34.88 43.32L34.17 43.32L33.46 43.29L32.77 43.25L32.08 43.18L31.4 43.1L30.74 43.01L30.08 42.89L29.43 42.76L28.79 42.61L28.15 42.45L27.53 42.26L26.92 42.06L26.32 41.84L25.72 41.61L25.14 41.35L24.56 41.08L24 40.79L23.44 40.49L22.89 40.16L22.35 39.82L22.51 39.83L22.65 39.84L22.8 39.85L22.94 39.86L23.08 39.87L23.21 39.87L23.34 39.88L23.47 39.89L23.59 39.89L23.71 39.9L23.82 39.9L23.93 39.91L24.04 39.91L24.15 39.92L24.25 39.92L24.34 39.92L24.43 39.92L24.52 39.92L24.61 39.93L24.69 39.93L25.12 39.92L25.54 39.91L25.96 39.9L26.39 39.88L26.81 39.85L27.22 39.82L27.64 39.78L28.05 39.73L28.47 39.68L28.88 39.63L29.29 39.56L29.69 39.5L30.1 39.42L30.5 39.34L30.91 39.25L31.31 39.16L31.71 39.06L32.1 38.96L32.5 38.85L32.89 38.73L33.28 38.61L33.67 38.48L34.05 38.35L34.43 38.21L34.8 38.07L35.17 37.92L35.54 37.77L35.9 37.61L36.26 37.45L36.61 37.28L36.96 37.1L37.3 36.92L37.64 36.74L37.98 36.55L38.31 36.36L38.64 36.16L38.96 35.95L39.28 35.74L39.59 35.53L39.9 35.31L40.23 35.06L40.55 34.81L40.86 34.56L41.17 34.3L41.47 34.04L41.75 33.77L42.04 33.51L42.31 33.23L42.58 32.96L42.84 32.68L43.09 32.39L43.33 32.11L43.57 31.82L43.79 31.52L44.01 31.22L44.23 30.92L44.43 30.62L44.63 30.31L44.82 29.99L45 29.68L45.17 29.36L45.34 29.04L45.49 28.71L45.64 28.39L45.78 28.06L45.91 27.73L46.03 27.4L46.14 27.07L46.24 26.74L46.33 26.4L46.42 26.06L46.49 25.72L46.56 25.38L46.62 25.04L46.67 24.69L46.71 24.34L46.74 23.99L46.76 23.64L46.77 23.29L46.78 22.93L46.78 22.73L46.77 22.53L46.76 22.32L46.75 22.12L46.74 21.92L46.72 21.71L46.7 21.51L46.68 21.31L46.65 21.11L46.63 20.9L46.59 20.7L46.56 20.5L46.52 20.3L46.48 20.1L46.44 19.9L46.39 19.7L46.34 19.5L46.28 19.3L46.23 19.1L46.17 18.9L46.51 19.09L46.84 19.29L46.84 19.29L47.16 19.49ZM26.06 9.38L26.51 9.4L26.96 9.44L27.4 9.48L27.84 9.53L28.28 9.58L28.71 9.65L29.14 9.72L29.57 9.8L30 9.88L30.42 9.98L30.84 10.08L31.25 10.19L31.67 10.3L32.08 10.43L32.48 10.56L32.88 10.7L33.28 10.85L33.68 11L34.08 11.16L34.46 11.33L34.84 11.5L35.22 11.68L35.58 11.87L35.94 12.06L36.29 12.25L36.64 12.45L36.97 12.66L37.3 12.87L37.62 13.09L37.94 13.31L38.24 13.54L38.54 13.77L38.83 14.01L39.11 14.25L39.39 14.5L39.66 14.76L39.92 15.02L40.17 15.28L40.42 15.55L40.65 15.83L40.88 16.11L41.11 16.4L41.32 16.69L41.52 16.98L41.71 17.27L41.89 17.57L42.06 17.86L42.22 18.16L42.37 18.46L42.51 18.77L42.64 19.08L42.76 19.38L42.86 19.7L42.96 20.01L43.05 20.33L43.13 20.64L43.19 20.96L43.25 21.29L43.3 21.61L43.33 21.94L43.36 22.27L43.38 22.6L43.38 22.94L43.38 23.27L43.36 23.6L43.33 23.93L43.3 24.26L43.25 24.58L43.19 24.91L43.13 25.23L43.05 25.55L42.96 25.86L42.86 26.18L42.76 26.49L42.64 26.8L42.51 27.1L42.37 27.41L42.22 27.71L42.06 28.01L41.89 28.31L41.71 28.6L41.52 28.89L41.32 29.18L41.11 29.47L40.88 29.76L40.65 30.04L40.42 30.32L40.17 30.59L39.92 30.85L39.66 31.11L39.39 31.37L39.11 31.62L38.83 31.86L38.54 32.1L38.24 32.33L37.94 32.56L37.62 32.79L37.3 33L36.97 33.21L36.64 33.42L36.29 33.62L35.94 33.82L35.58 34.01L35.22 34.19L34.84 34.37L34.46 34.54L34.08 34.71L33.68 34.87L33.28 35.03L32.88 35.17L32.48 35.31L32.08 35.44L31.67 35.57L31.25 35.68L30.84 35.79L30.42 35.89L30 35.99L29.57 36.07L29.14 36.15L28.71 36.22L28.28 36.29L27.84 36.34L27.4 36.39L26.96 36.43L26.51 36.47L26.06 36.49L25.61 36.51L25.15 36.52L24.69 36.53L24.48 36.53L24.27 36.52L24.07 36.52L23.86 36.51L23.65 36.51L23.44 36.5L23.23 36.48L23.02 36.47L22.8 36.46L22.59 36.44L22.38 36.42L22.17 36.4L21.95 36.38L21.74 36.35L21.53 36.33L21.31 36.3L21.1 36.27L20.88 36.24L20.67 36.21L20.45 36.18L20.23 36.14L20.02 36.1L19.72 36.31L19.41 36.52L19.11 36.72L18.79 36.91L18.48 37.1L18.16 37.28L17.84 37.46L17.52 37.63L17.19 37.8L16.86 37.96L16.53 38.12L16.19 38.27L15.85 38.42L15.51 38.56L15.16 38.7L14.81 38.83L14.45 38.95L14.1 39.07L13.74 39.19L13.37 39.3L13.01 39.4L12.64 39.5L12.55 39.52L12.46 39.54L12.37 39.56L12.28 39.59L12.18 39.61L12.09 39.63L11.99 39.65L11.89 39.67L11.79 39.69L11.69 39.71L11.59 39.73L11.48 39.75L11.38 39.76L11.27 39.78L11.16 39.8L11.05 39.82L10.94 39.84L10.82 39.86L10.71 39.87L10.59 39.89L10.47 39.91L10.35 39.93L10.28 39.93L10.25 39.92L10.22 39.92L10.2 39.92L10.17 39.92L10.14 39.91L10.12 39.91L10.09 39.9L10.07 39.9L10.04 39.89L10.02 39.88L9.99 39.87L9.97 39.86L9.94 39.85L9.92 39.84L9.89 39.83L9.87 39.81L9.85 39.8L9.82 39.78L9.8 39.77L9.78 39.75L9.75 39.73L9.73 39.71L9.71 39.69L9.69 39.67L9.66 39.65L9.64 39.63L9.63 39.61L9.61 39.59L9.59 39.56L9.57 39.54L9.56 39.52L9.54 39.49L9.53 39.47L9.51 39.44L9.5 39.42L9.49 39.39L9.48 39.36L9.47 39.33L9.46 39.31L9.45 39.28L9.44 39.25L9.44 39.22L9.43 39.19L9.42 39.16L9.42 39.15L9.42 39.14L9.42 39.13L9.42 39.13L9.41 39.12L9.41 39.11L9.41 39.1L9.41 39.1L9.41 39.09L9.41 39.08L9.4 39.07L9.4 39.06L9.4 39.06L9.4 39.05L9.4 39.04L9.4 39.03L9.4 39.02L9.4 39.02L9.4 39.01L9.4 39L9.4 38.99L9.4 38.97L9.4 38.95L9.4 38.94L9.4 38.93L9.4 38.91L9.4 38.89L9.4 38.89L9.4 38.87L9.4 38.86L9.41 38.85L9.41 38.84L9.41 38.83L9.41 38.81L9.41 38.8L9.42 38.79L9.42 38.78L9.42 38.77L9.42 38.76L9.42 38.75L9.43 38.75L9.43 38.74L9.43 38.72L9.44 38.72L9.44 38.71L9.44 38.7L9.45 38.69L9.45 38.68L9.45 38.67L9.46 38.66L9.46 38.65L9.53 38.52L9.57 38.46L9.62 38.37L9.63 38.36L9.64 38.35L9.65 38.34L9.65 38.33L9.66 38.32L9.67 38.31L9.67 38.3L9.68 38.29L9.69 38.28L9.69 38.27L9.7 38.27L9.7 38.26L9.71 38.26L9.71 38.25L9.71 38.25L9.72 38.25L9.72 38.24L9.72 38.24L9.72 38.24L9.73 38.24L9.73 38.24L9.74 38.24L9.74 38.24L9.74 38.24L9.74 38.24L9.75 38.23L9.75 38.23L9.76 38.23L9.76 38.22L9.77 38.21L9.77 38.21L9.78 38.2L9.78 38.19L9.79 38.19L9.8 38.18L9.81 38.17L9.81 38.16L9.82 38.15L9.83 38.13L9.84 38.12L9.85 38.11L9.86 38.1L9.87 38.08L9.88 38.07L9.88 38.06L9.89 38.05L9.9 38.04L9.91 38.03L9.91 38.02L9.92 38.02L9.92 38.01L9.93 38.01L9.93 38L9.94 38L9.94 37.99L9.95 37.99L9.95 37.99L9.95 37.99L9.95 37.98L9.96 37.99L9.96 37.99L9.96 37.99L9.97 37.97L9.98 37.96L10 37.94L10.02 37.92L10.03 37.9L10.05 37.88L10.08 37.85L10.1 37.83L10.12 37.8L10.15 37.77L10.17 37.74L10.2 37.71L10.23 37.68L10.26 37.65L10.3 37.61L10.33 37.57L10.37 37.54L10.4 37.5L10.44 37.46L10.48 37.41L10.52 37.37L10.57 37.33L10.61 37.28L10.65 37.24L10.69 37.19L10.73 37.15L10.77 37.11L10.81 37.07L10.84 37.03L10.88 36.99L10.91 36.95L10.95 36.91L10.98 36.88L11.01 36.84L11.04 36.81L11.07 36.77L11.09 36.74L11.12 36.71L11.15 36.68L11.17 36.65L11.19 36.62L11.22 36.59L11.24 36.57L11.26 36.54L11.28 36.52L11.32 36.46L11.34 36.43L11.36 36.4L11.41 36.34L11.43 36.31L11.46 36.28L11.49 36.25L11.51 36.21L11.54 36.18L11.6 36.1L11.63 36.06L11.66 36.02L11.69 35.98L11.72 35.94L11.75 35.9L11.79 35.86L11.82 35.82L11.85 35.77L11.89 35.73L11.92 35.68L11.96 35.64L11.99 35.59L12.02 35.55L12.06 35.5L12.09 35.46L12.12 35.41L12.15 35.36L12.18 35.32L12.21 35.27L12.24 35.22L12.27 35.18L12.3 35.13L12.33 35.08L12.36 35.04L12.39 34.99L12.41 34.94L12.44 34.89L12.47 34.85L12.49 34.8L12.52 34.75L12.54 34.7L12.57 34.65L12.59 34.6L12.62 34.55L12.64 34.5L12.67 34.45L12.69 34.4L12.72 34.35L12.74 34.3L12.77 34.25L12.79 34.19L12.82 34.14L12.84 34.09L12.87 34.03L12.89 33.98L12.92 33.92L12.94 33.87L12.97 33.81L12.99 33.75L13.01 33.7L13.04 33.64L13.06 33.58L12.77 33.41L12.48 33.23L12.19 33.04L11.91 32.86L11.64 32.67L11.37 32.47L11.11 32.28L10.85 32.08L10.6 31.87L10.36 31.66L10.12 31.45L9.89 31.24L9.66 31.02L9.44 30.79L9.23 30.57L9.02 30.34L8.81 30.1L8.62 29.87L8.43 29.63L8.24 29.38L8.06 29.13L7.89 28.88L7.72 28.63L7.56 28.37L7.41 28.12L7.26 27.86L7.13 27.6L7 27.33L6.88 27.07L6.76 26.81L6.66 26.54L6.56 26.27L6.47 26L6.39 25.73L6.32 25.46L6.25 25.18L6.19 24.91L6.14 24.63L6.1 24.35L6.06 24.07L6.04 23.79L6.02 23.51L6 23.22L6 22.94L6.01 22.6L6.02 22.27L6.05 21.94L6.08 21.61L6.13 21.29L6.19 20.96L6.25 20.64L6.33 20.33L6.42 20.01L6.52 19.7L6.62 19.38L6.74 19.08L6.87 18.77L7.01 18.46L7.16 18.16L7.32 17.86L7.49 17.57L7.67 17.27L7.86 16.98L8.06 16.69L8.27 16.4L8.5 16.11L8.73 15.83L8.96 15.55L9.21 15.28L9.46 15.02L9.72 14.76L9.99 14.5L10.27 14.25L10.55 14.01L10.84 13.77L11.14 13.54L11.45 13.31L11.76 13.09L12.08 12.87L12.41 12.66L12.74 12.45L13.09 12.25L13.44 12.06L13.8 11.87L14.16 11.68L14.54 11.5L14.92 11.33L15.31 11.16L15.7 11L16.1 10.85L16.5 10.7L16.9 10.56L17.31 10.43L17.71 10.3L18.13 10.19L18.54 10.08L18.96 9.98L19.38 9.88L19.81 9.8L20.24 9.72L20.67 9.65L21.1 9.58L21.54 9.53L21.98 9.48L22.42 9.44L22.87 9.4L23.32 9.38L23.77 9.36L24.23 9.35L24.69 9.34L25.15 9.35L25.61 9.36L25.61 9.36L26.06 9.38ZM23.19 12.79L22.69 12.83L22.2 12.88L21.72 12.93L21.24 13L20.76 13.09L20.29 13.18L19.82 13.28L19.36 13.39L18.9 13.52L18.44 13.65L17.99 13.8L17.54 13.95L17.1 14.12L16.66 14.3L16.24 14.48L15.82 14.67L15.42 14.87L15.03 15.08L14.65 15.29L14.29 15.52L13.93 15.75L13.58 15.99L13.25 16.23L12.93 16.48L12.62 16.74L12.32 17.01L12.03 17.29L11.75 17.57L11.48 17.86L11.23 18.16L10.99 18.46L10.77 18.76L10.57 19.07L10.38 19.37L10.21 19.69L10.06 20L9.92 20.31L9.8 20.63L9.69 20.95L9.6 21.28L9.53 21.6L9.47 21.93L9.43 22.26L9.41 22.6L9.4 22.94L9.4 23.21L9.42 23.48L9.45 23.75L9.49 24.01L9.54 24.28L9.6 24.55L9.67 24.81L9.75 25.07L9.84 25.33L9.95 25.59L10.06 25.85L10.19 26.11L10.33 26.37L10.48 26.62L10.64 26.88L10.81 27.13L10.99 27.38L11.18 27.63L11.37 27.87L11.58 28.11L11.8 28.34L12.02 28.57L12.26 28.79L12.5 29.02L12.75 29.23L13.01 29.45L13.28 29.65L13.56 29.86L13.85 30.06L14.14 30.25L14.45 30.45L14.76 30.63L17.34 32.12L16.41 34.35L16.52 34.29L16.63 34.22L16.74 34.15L16.85 34.09L16.96 34.02L17.06 33.96L17.17 33.89L17.27 33.83L17.37 33.76L17.47 33.7L17.57 33.63L17.67 33.57L17.77 33.51L17.86 33.44L17.96 33.38L18.05 33.32L19.22 32.49L20.63 32.76L20.89 32.8L21.15 32.85L21.4 32.88L21.66 32.92L21.92 32.95L22.17 32.98L22.43 33.01L22.68 33.04L22.93 33.06L23.19 33.08L23.44 33.09L23.69 33.11L23.94 33.12L24.19 33.12L24.44 33.13L24.69 33.13L25.2 33.12L25.7 33.11L26.2 33.08L26.69 33.04L27.18 33L27.66 32.94L28.14 32.87L28.62 32.79L29.09 32.69L29.56 32.59L30.02 32.48L30.48 32.35L30.94 32.22L31.39 32.07L31.84 31.92L32.28 31.75L32.72 31.57L33.14 31.39L33.56 31.2L33.96 31L34.35 30.79L34.73 30.58L35.1 30.35L35.45 30.12L35.8 29.89L36.13 29.64L36.45 29.39L36.77 29.13L37.07 28.86L37.36 28.58L37.63 28.3L37.9 28.01L38.15 27.71L38.39 27.41L38.61 27.11L38.81 26.8L39 26.5L39.17 26.19L39.32 25.87L39.46 25.56L39.58 25.24L39.69 24.92L39.78 24.59L39.85 24.27L39.91 23.94L39.95 23.61L39.97 23.27L39.98 22.94L39.97 22.6L39.95 22.26L39.91 21.93L39.85 21.6L39.78 21.28L39.69 20.95L39.58 20.63L39.46 20.31L39.32 20L39.17 19.69L39 19.37L38.81 19.07L38.61 18.76L38.39 18.46L38.15 18.16L37.9 17.86L37.63 17.57L37.36 17.29L37.07 17.01L36.77 16.74L36.45 16.48L36.13 16.23L35.8 15.98L35.45 15.75L35.1 15.52L34.73 15.29L34.35 15.08L33.96 14.87L33.56 14.67L33.14 14.48L32.72 14.3L32.28 14.12L31.84 13.95L31.39 13.8L30.94 13.65L30.48 13.52L30.02 13.39L29.56 13.28L29.09 13.18L28.62 13.09L28.14 13L27.66 12.93L27.18 12.88L26.69 12.83L26.2 12.79L25.7 12.76L25.2 12.75L24.69 12.74L24.18 12.75L23.68 12.76L23.68 12.76L23.19 12.79Z" id="c2iZ13K0KR"></path></defs><g><g><g><g><use xlink:href="#a1V7033cU" opacity="1" fill="#00cfbf" fill-opacity="1"></use></g><g><use xlink:href="#c2iZ13K0KR" opacity="1" fill="#ffffff" fill-opacity="1"></use><g><use xlink:href="#c2iZ13K0KR" opacity="1" fill-opacity="0" stroke="#000000" stroke-width="1" stroke-opacity="0"></use></g></g></g></g></g></svg>