<?xml version="1.0" encoding="UTF-8" standalone="no"?>
<!DOCTYPE svg PUBLIC "-//W3C//DTD SVG 1.1//EN" "http://www.w3.org/Graphics/SVG/1.1/DTD/svg11.dtd">
<svg version="1.1" xmlns="http://www.w3.org/2000/svg" xmlns:xlink="http://www.w3.org/1999/xlink" preserveAspectRatio="xMidYMid meet" viewBox="0 0 60 60" width="60" height="60"><defs><path d="M60 30C60 46.56 46.56 60 30 60C13.44 60 0 46.56 0 30C0 13.44 13.44 0 30 0C46.56 0 60 13.44 60 30Z" id="a1Qm9nINaW"></path><path d="M20.39 11.88L20.55 12.11L20.61 12.4L20.55 12.69L20.39 12.92L20.16 13.08L19.87 13.13L19.14 13.13L18.86 13.08L18.62 12.92L18.47 12.69L18.41 12.4L18.47 12.11L18.62 11.88L18.86 11.72L19.14 11.67L19.87 11.67L20.16 11.72L20.39 11.88Z" id="a1a4kjDkvf"></path><path d="M32.86 11.88L33.02 12.11L33.07 12.4L33.02 12.69L32.86 12.92L32.63 13.08L32.34 13.13L22.81 13.13L22.52 13.08L22.29 12.92L22.13 12.69L22.07 12.4L22.13 12.11L22.29 11.88L22.52 11.72L22.81 11.67L32.34 11.67L32.63 11.72L32.86 11.88Z" id="bwsTBVM15"></path><path d="M25.83 5.81L25.99 5.83L26.15 5.85L26.3 5.87L26.46 5.9L26.61 5.94L26.76 5.98L26.91 6.03L27.05 6.09L27.2 6.14L27.34 6.21L27.48 6.27L27.61 6.35L27.75 6.43L27.88 6.51L28.01 6.6L28.13 6.69L28.25 6.78L28.37 6.88L28.48 6.99L28.59 7.1L28.7 7.21L28.8 7.33L28.9 7.45L28.99 7.57L29.08 7.7L29.17 7.83L29.25 7.96L29.33 8.1L29.4 8.24L29.47 8.39L29.53 8.54L29.58 8.69L33.45 8.69L33.53 8.69L33.61 8.7L33.69 8.7L33.77 8.71L33.85 8.73L33.92 8.74L34 8.76L34.08 8.78L34.15 8.81L34.22 8.83L34.29 8.86L34.36 8.89L34.43 8.93L34.5 8.97L34.57 9L34.63 9.05L34.7 9.09L34.76 9.13L34.82 9.18L34.88 9.23L34.94 9.28L34.99 9.34L35.04 9.4L35.09 9.45L35.14 9.51L35.19 9.58L35.24 9.64L35.28 9.7L35.32 9.77L35.36 9.84L35.39 9.91L35.43 9.98L35.46 10.06L35.49 10.13L38.51 10.13L38.61 10.14L38.72 10.14L38.82 10.16L38.92 10.17L39.02 10.19L39.12 10.22L39.21 10.25L39.3 10.28L39.4 10.32L39.49 10.37L39.57 10.41L39.66 10.46L39.74 10.52L39.82 10.57L39.89 10.64L39.97 10.7L40.04 10.77L40.11 10.84L40.17 10.91L40.23 10.99L40.29 11.07L40.34 11.15L40.39 11.23L40.44 11.32L40.48 11.41L40.52 11.5L40.56 11.6L40.59 11.69L40.61 11.79L40.63 11.89L40.65 11.99L40.66 12.09L40.67 12.2L40.67 12.3L40.67 24.49L40.74 24.55L40.81 24.61L40.88 24.67L40.94 24.73L41 24.79L41.07 24.85L41.13 24.92L41.19 24.98L41.25 25.05L41.31 25.11L41.37 25.18L41.43 25.25L41.48 25.32L41.54 25.39L41.59 25.46L41.64 25.53L41.7 25.6L41.75 25.68L41.8 25.75L41.85 25.83L41.89 25.9L41.94 25.98L41.98 26.05L42.03 26.13L42.07 26.21L42.11 26.29L42.15 26.37L42.19 26.45L42.23 26.53L42.27 26.61L42.31 26.69L42.34 26.78L42.37 26.86L42.41 26.94L42.41 26.95L42.42 26.96L42.42 26.98L42.43 27L42.44 27.02L42.45 27.04L42.45 27.07L42.46 27.09L42.46 27.1L42.47 27.11L42.47 27.12L42.48 27.14L42.49 27.16L42.49 27.18L42.5 27.22L42.51 27.23L42.51 27.24L42.51 27.25L42.52 27.28L42.53 27.3L42.61 27.12L42.68 26.95L42.77 26.77L42.85 26.6L42.94 26.42L43.03 26.25L43.13 26.09L43.23 25.92L43.33 25.76L43.43 25.6L43.54 25.44L43.65 25.28L43.77 25.13L43.88 24.97L44 24.83L44.13 24.68L44.25 24.53L44.38 24.39L44.51 24.25L44.65 24.12L44.79 23.98L44.93 23.85L45.07 23.72L45.22 23.6L45.36 23.48L45.52 23.36L45.67 23.24L45.82 23.13L45.98 23.01L46.14 22.91L46.31 22.8L46.47 22.7L46.64 22.6L46.81 22.51L46.84 22.49L46.87 22.48L46.9 22.47L46.93 22.45L46.97 22.44L47 22.44L47.03 22.43L47.06 22.42L47.09 22.42L47.13 22.42L47.16 22.42L47.19 22.42L47.22 22.42L47.26 22.42L47.29 22.43L47.32 22.44L47.35 22.44L47.38 22.45L47.41 22.46L47.44 22.47L47.47 22.49L47.5 22.5L47.53 22.52L47.56 22.53L47.58 22.55L47.61 22.57L47.63 22.59L47.66 22.62L47.68 22.64L47.7 22.66L47.73 22.69L47.75 22.72L47.77 22.74L47.78 22.77L47.8 22.8L47.82 22.83L47.83 22.86L47.84 22.9L47.85 22.93L47.86 22.96L47.87 22.99L47.87 23.02L47.88 23.06L47.88 23.09L47.88 23.12L47.88 23.15L47.88 23.18L47.88 23.22L47.88 23.25L47.87 23.28L47.86 23.31L47.85 23.34L47.84 23.37L47.83 23.4L47.82 23.43L47.81 23.46L47.79 23.49L47.78 23.52L47.76 23.55L47.74 23.57L47.72 23.6L47.7 23.62L47.68 23.65L47.65 23.67L47.63 23.69L47.6 23.71L47.57 23.73L47.54 23.75L47.27 23.92L47.02 24.08L46.77 24.25L46.53 24.42L46.31 24.6L46.1 24.77L45.89 24.95L45.7 25.13L45.52 25.31L45.34 25.49L45.18 25.68L45.03 25.86L44.88 26.04L44.74 26.23L44.61 26.41L44.49 26.6L44.38 26.78L44.28 26.96L44.18 27.15L44.09 27.33L44.01 27.51L43.93 27.69L43.86 27.87L43.8 28.04L43.74 28.22L43.69 28.39L43.64 28.56L43.6 28.73L43.56 28.89L43.53 29.05L43.5 29.21L43.48 29.37L43.46 29.52L43.44 29.67L43.47 29.65L43.5 29.62L43.53 29.6L43.55 29.58L43.58 29.56L43.61 29.54L43.64 29.52L43.67 29.5L43.7 29.48L43.73 29.46L43.76 29.44L43.79 29.42L43.82 29.4L43.85 29.38L43.88 29.36L43.91 29.34L43.94 29.33L43.97 29.31L44 29.29L44.03 29.27L44.07 29.26L44.1 29.24L44.13 29.23L44.16 29.21L44.19 29.2L44.23 29.18L44.26 29.17L44.29 29.15L44.32 29.14L44.36 29.13L44.39 29.11L44.42 29.1L44.46 29.09L44.49 29.08L44.5 29.07L44.51 29.07L44.52 29.07L44.54 29.06L44.55 29.06L44.56 29.06L44.59 29.05L44.62 29.04L44.65 29.03L44.68 29.02L44.7 29.02L44.73 29.01L44.76 29L44.79 29L44.82 28.99L44.84 28.98L44.87 28.98L44.9 28.97L44.93 28.97L44.96 28.96L44.99 28.96L45.02 28.95L45.04 28.95L45.07 28.94L45.1 28.94L45.13 28.94L45.16 28.93L45.19 28.93L45.22 28.93L45.24 28.92L45.27 28.92L45.3 28.92L45.33 28.92L45.36 28.92L45.39 28.91L45.42 28.91L45.45 28.91L45.48 28.91L45.5 28.91L45.53 28.91L47.12 28.91L47.44 28.92L47.75 28.94L48.06 28.98L48.36 29.04L48.66 29.11L48.96 29.19L49.25 29.29L49.53 29.4L49.81 29.52L50.08 29.66L50.34 29.81L50.59 29.98L50.84 30.15L51.08 30.34L51.31 30.53L51.54 30.74L51.75 30.96L51.96 31.19L52.15 31.43L52.34 31.67L52.51 31.93L52.67 32.19L52.83 32.47L52.97 32.75L53.1 33.03L53.22 33.33L53.32 33.63L53.41 33.94L53.49 34.25L53.56 34.57L53.61 34.89L53.64 35.22L53.67 35.56L53.67 35.89L53.67 39.02L53.66 39.51L53.63 39.99L53.58 40.47L53.5 40.94L53.41 41.4L53.29 41.86L53.16 42.3L53.01 42.74L52.84 43.17L52.65 43.58L52.45 43.99L52.23 44.38L51.99 44.77L51.74 45.14L51.47 45.49L51.19 45.84L50.89 46.17L50.58 46.48L50.26 46.79L49.93 47.07L49.58 47.34L49.22 47.59L48.85 47.83L48.47 48.05L48.08 48.24L47.68 48.43L47.27 48.59L46.85 48.73L46.42 48.85L45.99 48.95L45.55 49.03L45.1 49.09L44.65 49.12L44.19 49.13L41.49 49.13L41.43 49.13L41.37 49.13L41.31 49.13L41.25 49.13L41.19 49.13L41.13 49.13L41.07 49.12L41.01 49.12L40.95 49.12L40.89 49.11L40.83 49.11L40.77 49.1L40.72 49.1L40.66 49.09L40.6 49.09L40.54 49.08L40.48 49.07L40.42 49.07L40.36 49.06L40.3 49.05L40.24 49.04L40.18 49.03L40.12 49.02L40.06 49.02L40.01 49.01L39.95 48.99L39.89 48.98L39.83 48.97L39.77 48.96L39.71 48.95L39.65 48.94L39.59 48.92L39.54 48.91L39.48 48.9L39.45 48.91L39.42 48.92L39.4 48.94L39.37 48.95L39.34 48.96L39.32 48.97L39.29 48.98L39.26 49L39.23 49.01L39.21 49.02L39.18 49.02L39.15 49.03L39.12 49.04L39.09 49.05L39.06 49.06L39.04 49.07L39.01 49.07L38.98 49.08L38.95 49.09L38.92 49.09L38.89 49.1L38.86 49.1L38.83 49.11L38.8 49.11L38.77 49.12L38.74 49.12L38.72 49.12L38.69 49.13L38.66 49.13L38.63 49.13L38.6 49.13L38.57 49.13L38.54 49.13L38.51 49.13L12.51 49.13L12.4 49.13L12.3 49.12L12.2 49.11L12.1 49.09L12 49.07L11.9 49.05L11.8 49.02L11.71 48.98L11.62 48.94L11.53 48.9L11.44 48.85L11.36 48.8L11.28 48.75L11.2 48.69L11.12 48.63L11.05 48.57L10.98 48.5L10.91 48.43L10.84 48.35L10.78 48.28L10.72 48.2L10.67 48.12L10.62 48.03L10.57 47.94L10.53 47.86L10.49 47.76L10.46 47.67L10.43 47.57L10.4 47.48L10.38 47.38L10.36 47.28L10.35 47.17L10.34 47.07L10.34 46.97L10.34 12.3L10.34 12.2L10.35 12.09L10.36 11.99L10.38 11.89L10.4 11.79L10.43 11.69L10.46 11.6L10.49 11.5L10.53 11.41L10.57 11.32L10.62 11.23L10.67 11.15L10.72 11.07L10.78 10.99L10.84 10.91L10.91 10.84L10.98 10.77L11.05 10.7L11.12 10.64L11.2 10.57L11.28 10.52L11.36 10.46L11.44 10.41L11.53 10.37L11.62 10.32L11.71 10.28L11.8 10.25L11.9 10.22L12 10.19L12.1 10.17L12.2 10.16L12.3 10.14L12.4 10.14L12.51 10.13L15.53 10.13L15.56 10.06L15.59 9.98L15.62 9.91L15.66 9.84L15.7 9.77L15.74 9.7L15.78 9.64L15.82 9.58L15.87 9.51L15.92 9.45L15.97 9.4L16.02 9.34L16.08 9.28L16.14 9.23L16.2 9.18L16.26 9.13L16.32 9.09L16.38 9.05L16.45 9L16.51 8.97L16.58 8.93L16.65 8.89L16.72 8.86L16.79 8.83L16.87 8.81L16.94 8.78L17.01 8.76L17.09 8.74L17.17 8.73L17.25 8.71L17.32 8.7L17.4 8.7L17.48 8.69L17.56 8.69L21.43 8.69L21.49 8.54L21.55 8.39L21.62 8.24L21.69 8.1L21.76 7.96L21.84 7.83L21.93 7.7L22.02 7.57L22.11 7.45L22.21 7.33L22.32 7.21L22.42 7.1L22.53 6.99L22.65 6.88L22.76 6.78L22.89 6.69L23.01 6.6L23.14 6.51L23.27 6.43L23.4 6.35L23.54 6.27L23.68 6.21L23.82 6.14L23.96 6.09L24.11 6.03L24.26 5.98L24.41 5.94L24.56 5.9L24.71 5.87L24.87 5.85L25.03 5.83L25.19 5.81L25.35 5.8L25.51 5.8L25.67 5.8L25.83 5.81ZM12.46 11.58L12.41 11.58L12.36 11.59L12.32 11.6L12.27 11.62L12.23 11.63L12.18 11.65L12.14 11.68L12.1 11.7L12.07 11.73L12.03 11.76L12 11.79L11.97 11.82L11.94 11.86L11.91 11.9L11.88 11.94L11.86 11.98L11.84 12.02L11.83 12.06L11.81 12.11L11.8 12.15L11.79 12.2L11.79 12.25L11.79 12.3L11.79 46.97L11.79 47.02L11.79 47.06L11.8 47.11L11.81 47.16L11.83 47.2L11.84 47.25L11.86 47.29L11.88 47.33L11.91 47.37L11.94 47.41L11.97 47.44L12 47.48L12.03 47.51L12.07 47.54L12.1 47.57L12.14 47.59L12.18 47.61L12.23 47.63L12.27 47.65L12.32 47.66L12.36 47.67L12.41 47.68L12.46 47.69L12.51 47.69L36.63 47.69L36.55 47.64L36.47 47.58L36.39 47.53L36.31 47.48L36.23 47.42L36.16 47.37L36.08 47.31L36 47.25L35.93 47.2L35.85 47.14L35.78 47.08L35.71 47.02L35.63 46.96L35.56 46.9L35.49 46.83L35.42 46.77L35.34 46.71L35.27 46.64L35.2 46.58L35.14 46.51L35.07 46.45L35 46.38L34.93 46.31L34.87 46.24L14.67 46.24L14.58 46.24L14.48 46.23L14.38 46.21L14.29 46.19L14.2 46.16L14.11 46.13L14.03 46.09L13.95 46.05L13.87 46L13.79 45.94L13.72 45.88L13.65 45.82L13.59 45.75L13.53 45.68L13.48 45.61L13.43 45.53L13.38 45.45L13.34 45.36L13.31 45.27L13.28 45.18L13.26 45.09L13.24 45L13.23 44.9L13.23 44.8L13.23 14.47L13.23 14.37L13.24 14.27L13.26 14.18L13.28 14.08L13.31 13.99L13.34 13.9L13.38 13.82L13.43 13.74L13.48 13.66L13.53 13.58L13.59 13.51L13.65 13.45L13.72 13.38L13.79 13.32L13.87 13.27L13.95 13.22L14.03 13.17L14.11 13.14L14.2 13.1L14.29 13.07L14.38 13.05L14.48 13.04L14.58 13.03L14.67 13.02L15.4 13.02L15.4 11.58L12.51 11.58L12.46 11.58ZM45.48 30.36L45.43 30.36L45.39 30.36L45.34 30.36L45.3 30.37L45.25 30.38L45.21 30.38L45.16 30.39L45.12 30.4L45.08 30.41L45.03 30.42L44.99 30.44L44.95 30.45L44.91 30.46L44.72 30.55L44.55 30.65L44.38 30.77L44.23 30.9L44.09 31.04L43.97 31.2L43.86 31.37L43.77 31.54L43.69 31.73L43.63 31.92L43.59 32.12L43.57 32.32L43.56 32.53L43.56 33.24L43.56 33.33L43.54 33.42L43.51 33.51L43.48 33.58L43.43 33.66L43.38 33.72L43.32 33.78L43.25 33.84L43.18 33.88L43.1 33.92L43.02 33.94L42.93 33.96L42.84 33.97L42.75 33.96L42.66 33.94L42.58 33.92L42.5 33.88L42.43 33.84L42.36 33.78L42.3 33.72L42.25 33.66L42.2 33.58L42.17 33.51L42.14 33.42L42.12 33.33L42.12 33.24L42.12 32.53L42.11 32.32L42.09 32.12L42.05 31.92L41.99 31.73L41.91 31.54L41.82 31.37L41.71 31.2L41.58 31.05L41.44 30.9L41.29 30.77L41.13 30.65L40.95 30.55L40.76 30.46L40.72 30.45L40.67 30.43L40.63 30.42L40.58 30.41L40.53 30.4L40.49 30.39L40.44 30.38L40.39 30.37L40.35 30.37L40.3 30.36L40.25 30.36L40.2 30.36L40.16 30.36L38.56 30.36L37.92 30.4L37.31 30.52L36.72 30.73L36.16 31.01L35.64 31.35L35.17 31.76L34.74 32.22L34.37 32.73L34.05 33.29L33.8 33.9L33.61 34.53L33.49 35.2L33.45 35.89L33.45 39.02L33.51 40.11L33.7 41.15L33.99 42.15L34.4 43.09L34.89 43.97L35.48 44.78L36.15 45.5L36.9 46.13L37.72 46.67L38.59 47.1L39.51 47.42L40.48 47.62L41.49 47.69L44.19 47.69L45.2 47.62L46.17 47.42L47.09 47.1L47.97 46.67L48.78 46.13L49.53 45.5L50.2 44.77L50.79 43.97L51.29 43.09L51.69 42.15L51.98 41.15L52.17 40.11L52.23 39.02L52.23 35.89L52.19 35.2L52.07 34.53L51.88 33.9L51.63 33.29L51.31 32.73L50.94 32.22L50.51 31.76L50.04 31.35L49.52 31.01L48.96 30.73L48.37 30.52L47.76 30.4L47.12 30.35L45.52 30.35L45.48 30.36ZM14.67 44.8L33.72 44.8L33.56 44.55L33.41 44.3L33.27 44.05L33.14 43.79L33.01 43.53L32.89 43.26L32.78 42.99L32.67 42.72L32.57 42.45L32.48 42.17L32.4 41.9L32.33 41.62L32.26 41.33L32.2 41.05L32.15 40.76L32.1 40.48L32.07 40.19L32.04 39.9L32.02 39.61L32.01 39.31L32.01 39.02L32.01 35.89L32.01 35.51L32.04 35.13L32.09 34.76L32.15 34.39L32.24 34.03L32.34 33.67L32.46 33.32L32.6 32.98L32.76 32.64L32.94 32.32L33.13 32L33.34 31.7L33.56 31.4L33.8 31.12L34.06 30.85L34.33 30.59L34.61 30.35L34.91 30.12L35.22 29.91L35.54 29.71L35.88 29.53L35.64 29.33L35.43 29.1L35.24 28.87L35.06 28.62L34.91 28.36L34.77 28.09L34.65 27.82L34.54 27.54L34.45 27.25L34.37 26.96L34.31 26.67L34.26 26.38L34.23 26.09L34.2 25.81L34.19 25.52L34.19 25.25L34.19 24.98L34.2 24.73L34.22 24.48L34.25 24.25L34.29 24.03L34.3 23.98L34.31 23.94L34.32 23.89L34.34 23.84L34.37 23.79L34.4 23.73L34.43 23.68L34.48 23.63L34.53 23.58L34.6 23.52L34.68 23.47L34.77 23.43L34.87 23.38L34.99 23.34L35.13 23.3L35.28 23.26L35.45 23.23L35.64 23.2L35.85 23.17L36.09 23.16L36.34 23.14L36.34 14.47L35.49 14.47L35.44 14.59L35.39 14.7L35.33 14.82L35.26 14.93L35.19 15.03L35.11 15.13L35.03 15.22L34.94 15.31L34.85 15.4L34.75 15.47L34.65 15.55L34.54 15.61L34.43 15.67L34.32 15.73L34.2 15.77L34.08 15.81L33.96 15.85L33.84 15.88L33.71 15.89L33.58 15.91L33.45 15.91L17.56 15.91L17.43 15.91L17.3 15.89L17.18 15.88L17.05 15.85L16.93 15.81L16.81 15.77L16.7 15.73L16.58 15.67L16.47 15.61L16.37 15.55L16.27 15.47L16.17 15.4L16.08 15.31L15.99 15.22L15.91 15.13L15.83 15.03L15.76 14.93L15.69 14.82L15.63 14.7L15.58 14.59L15.53 14.47L14.67 14.47L14.67 44.8ZM36.7 24.58L36.35 24.6L36.01 24.62L35.66 24.66L35.64 25.68L35.86 26.98L36.55 28.19L37.93 28.92L37.94 28.93L37.95 28.93L37.96 28.94L37.98 28.94L38.12 28.93L38.27 28.92L38.42 28.91L38.56 28.91L40.14 28.91L40.43 28.92L40.71 28.96L40.98 29.02L41.25 29.1L41.3 29.12L41.36 29.15L41.41 29.18L41.46 29.2L41.39 28.76L41.3 28.32L41.19 27.89L41.06 27.46L40.44 26.29L39.52 25.39L38.37 24.8L37.06 24.58L37.05 24.58L36.7 24.58ZM35.62 13.02L36.34 13.02L36.8 13.1L37.19 13.3L37.51 13.61L37.71 14.01L37.79 14.47L37.79 23.21L38.08 23.25L38.37 23.32L38.66 23.4L38.95 23.49L39.23 23.6L39.23 12.3L39.19 12.07L39.09 11.87L38.93 11.72L38.74 11.61L38.51 11.58L35.62 11.58L35.62 13.02ZM24.52 7.42L24.08 7.62L23.68 7.89L23.33 8.23L23.04 8.63L22.82 9.07L22.67 9.55L22.67 9.56L22.67 9.57L22.66 9.58L22.66 9.59L22.66 9.6L22.65 9.6L22.65 9.61L22.64 9.62L22.64 9.64L22.63 9.66L22.63 9.67L22.62 9.69L22.61 9.71L22.61 9.72L22.6 9.74L22.59 9.75L22.56 9.8L22.53 9.84L22.5 9.88L22.47 9.92L22.43 9.95L22.39 9.98L22.35 10.01L22.31 10.04L22.29 10.04L22.27 10.05L22.26 10.06L22.24 10.07L22.22 10.07L22.21 10.08L22.19 10.09L22.17 10.09L22.16 10.1L22.14 10.1L22.12 10.1L22.11 10.11L22.09 10.11L22.07 10.11L22.06 10.12L22.04 10.12L22.03 10.12L22.02 10.12L22.01 10.12L22 10.13L22 10.13L21.99 10.13L21.98 10.13L21.97 10.13L17.56 10.13L17.42 10.15L17.28 10.19L17.16 10.26L17.05 10.34L16.96 10.45L16.9 10.57L16.86 10.71L16.84 10.86L16.84 13.74L16.86 13.89L16.9 14.03L16.96 14.15L17.05 14.25L17.16 14.34L17.28 14.41L17.42 14.45L17.56 14.47L33.45 14.47L33.6 14.45L33.73 14.41L33.86 14.34L33.96 14.25L34.05 14.15L34.12 14.03L34.16 13.89L34.17 13.74L34.17 10.86L34.16 10.71L34.12 10.57L34.05 10.45L33.96 10.34L33.86 10.26L33.73 10.19L33.6 10.15L33.45 10.13L29.05 10.13L29 10.13L28.95 10.13L28.91 10.12L28.87 10.11L28.82 10.1L28.78 10.08L28.74 10.06L28.7 10.04L28.68 10.03L28.66 10.02L28.65 10L28.63 9.99L28.61 9.98L28.59 9.97L28.58 9.95L28.56 9.94L28.55 9.93L28.54 9.92L28.53 9.91L28.53 9.9L28.52 9.89L28.51 9.88L28.5 9.87L28.49 9.86L28.48 9.85L28.47 9.83L28.46 9.82L28.45 9.8L28.43 9.79L28.42 9.77L28.41 9.75L28.41 9.73L28.4 9.72L28.39 9.71L28.39 9.7L28.38 9.68L28.38 9.67L28.37 9.66L28.37 9.64L28.36 9.63L28.36 9.62L28.36 9.61L28.35 9.6L28.35 9.59L28.34 9.58L28.34 9.57L28.34 9.56L28.33 9.55L28.19 9.07L27.97 8.63L27.68 8.23L27.33 7.89L26.93 7.62L26.49 7.42L26.01 7.29L25.5 7.24L25 7.29L24.52 7.42Z" id="d5WccPjtIU"></path><path d="M38.76 32.44L38.91 32.7L38.94 32.99L38.87 33.26L38.7 33.48L38.45 33.63L38.14 33.78L37.56 34.25L37 35.16L36.74 36.6L36.68 36.89L36.53 37.12L36.29 37.28L36.01 37.33L35.72 37.28L35.49 37.12L35.33 36.89L35.27 36.6L35.68 34.48L36.58 33.15L37.51 32.45L37.98 32.24L38.26 32.2L38.54 32.27L38.76 32.44Z" id="b28pPPHoNv"></path><path d="M20.91 18.7L21.23 19.16L21.34 19.73L21.34 21.93L21.23 22.5L20.91 22.97L20.45 23.28L19.87 23.4L17.67 23.4L17.1 23.28L16.64 22.97L16.32 22.5L16.21 21.93L16.21 19.73L16.32 19.16L16.64 18.7L17.1 18.38L17.67 18.27L19.87 18.27L20.45 18.38L20.91 18.7ZM17.67 21.93L19.87 21.93L19.87 19.73L17.67 19.73L17.67 21.93Z" id="e43Jvdcy9d"></path><path d="M20.91 25.3L21.23 25.76L21.34 26.33L21.34 28.53L21.23 29.1L20.91 29.57L20.45 29.88L19.87 30L17.67 30L17.1 29.88L16.64 29.57L16.32 29.1L16.21 28.53L16.21 26.33L16.32 25.76L16.64 25.3L17.1 24.98L17.67 24.87L19.87 24.87L20.45 24.98L20.91 25.3ZM17.67 28.53L19.87 28.53L19.87 26.33L17.67 26.33L17.67 28.53Z" id="aDPCTmN5Z"></path><path d="M20.91 31.9L21.23 32.36L21.34 32.93L21.34 35.13L21.23 35.7L20.91 36.17L20.45 36.48L19.87 36.6L17.67 36.6L17.1 36.48L16.64 36.17L16.32 35.7L16.21 35.13L16.21 32.93L16.32 32.36L16.64 31.9L17.1 31.58L17.67 31.47L19.87 31.47L20.45 31.58L20.91 31.9ZM17.67 35.13L19.87 35.13L19.87 32.93L17.67 32.93L17.67 35.13Z" id="choFVTbuV"></path><path d="M20.91 38.5L21.23 38.96L21.34 39.53L21.34 41.73L21.23 42.3L20.91 42.77L20.45 43.08L19.87 43.2L17.67 43.2L17.1 43.08L16.64 42.77L16.32 42.3L16.21 41.73L16.21 39.53L16.32 38.96L16.64 38.5L17.1 38.18L17.67 38.07L19.87 38.07L20.45 38.18L20.91 38.5ZM17.67 41.73L19.87 41.73L19.87 39.53L17.67 39.53L17.67 41.73Z" id="b3auDpa76k"></path><path d="M34.24 20.61L34.4 20.77L34.5 20.97L34.54 21.2L34.5 21.43L34.4 21.63L34.24 21.79L34.04 21.9L33.81 21.93L23.54 21.93L23.31 21.9L23.11 21.79L22.95 21.63L22.84 21.43L22.81 21.2L22.84 20.97L22.95 20.77L23.11 20.61L23.31 20.5L23.54 20.47L33.81 20.47L34.04 20.5L34.24 20.61Z" id="f5KNqA8yMZ"></path><path d="M32.13 27.28L32.28 27.51L32.34 27.8L32.28 28.09L32.13 28.32L31.89 28.48L31.61 28.53L23.54 28.53L23.26 28.48L23.02 28.32L22.87 28.09L22.81 27.8L22.87 27.51L23.02 27.28L23.26 27.12L23.54 27.07L31.61 27.07L31.89 27.12L32.13 27.28Z" id="b5P0J03ppR"></path><path d="M30.66 33.88L30.82 34.11L30.87 34.4L30.82 34.69L30.66 34.92L30.43 35.08L30.14 35.13L23.54 35.13L23.26 35.08L23.02 34.92L22.87 34.69L22.81 34.4L22.87 34.11L23.02 33.88L23.26 33.72L23.54 33.67L30.14 33.67L30.43 33.72L30.66 33.88Z" id="aj8cVBIux"></path><path d="M30.66 40.48L30.82 40.71L30.87 41L30.82 41.29L30.66 41.52L30.43 41.68L30.14 41.73L23.54 41.73L23.26 41.68L23.02 41.52L22.87 41.29L22.81 41L22.87 40.71L23.02 40.48L23.26 40.32L23.54 40.27L30.14 40.27L30.43 40.32L30.66 40.48Z" id="apyzABvgl"></path></defs><g><g><g><g><use xlink:href="#a1Qm9nINaW" opacity="1" fill="#00cfbf" fill-opacity="1"></use></g><g><use xlink:href="#a1a4kjDkvf" opacity="1" fill="#ffffff" fill-opacity="1"></use><g><use xlink:href="#a1a4kjDkvf" opacity="1" fill-opacity="0" stroke="#000000" stroke-width="1" stroke-opacity="0"></use></g></g><g><use xlink:href="#bwsTBVM15" opacity="1" fill="#ffffff" fill-opacity="1"></use><g><use xlink:href="#bwsTBVM15" opacity="1" fill-opacity="0" stroke="#000000" stroke-width="1" stroke-opacity="0"></use></g></g><g><use xlink:href="#d5WccPjtIU" opacity="1" fill="#ffffff" fill-opacity="1"></use><g><use xlink:href="#d5WccPjtIU" opacity="1" fill-opacity="0" stroke="#000000" stroke-width="1" stroke-opacity="0"></use></g></g><g><use xlink:href="#b28pPPHoNv" opacity="1" fill="#ffffff" fill-opacity="1"></use><g><use xlink:href="#b28pPPHoNv" opacity="1" fill-opacity="0" stroke="#000000" stroke-width="1" stroke-opacity="0"></use></g></g><g><use xlink:href="#e43Jvdcy9d" opacity="1" fill="#ffffff" fill-opacity="1"></use><g><use xlink:href="#e43Jvdcy9d" opacity="1" fill-opacity="0" stroke="#000000" stroke-width="1" stroke-opacity="0"></use></g></g><g><use xlink:href="#aDPCTmN5Z" opacity="1" fill="#ffffff" fill-opacity="1"></use><g><use xlink:href="#aDPCTmN5Z" opacity="1" fill-opacity="0" stroke="#000000" stroke-width="1" stroke-opacity="0"></use></g></g><g><use xlink:href="#choFVTbuV" opacity="1" fill="#ffffff" fill-opacity="1"></use><g><use xlink:href="#choFVTbuV" opacity="1" fill-opacity="0" stroke="#000000" stroke-width="1" stroke-opacity="0"></use></g></g><g><use xlink:href="#b3auDpa76k" opacity="1" fill="#ffffff" fill-opacity="1"></use><g><use xlink:href="#b3auDpa76k" opacity="1" fill-opacity="0" stroke="#000000" stroke-width="1" stroke-opacity="0"></use></g></g><g><use xlink:href="#f5KNqA8yMZ" opacity="1" fill="#ffffff" fill-opacity="1"></use><g><use xlink:href="#f5KNqA8yMZ" opacity="1" fill-opacity="0" stroke="#000000" stroke-width="1" stroke-opacity="0"></use></g></g><g><use xlink:href="#b5P0J03ppR" opacity="1" fill="#ffffff" fill-opacity="1"></use><g><use xlink:href="#b5P0J03ppR" opacity="1" fill-opacity="0" stroke="#000000" stroke-width="1" stroke-opacity="0"></use></g></g><g><use xlink:href="#aj8cVBIux" opacity="1" fill="#ffffff" fill-opacity="1"></use><g><use xlink:href="#aj8cVBIux" opacity="1" fill-opacity="0" stroke="#000000" stroke-width="1" stroke-opacity="0"></use></g></g><g><use xlink:href="#apyzABvgl" opacity="1" fill="#ffffff" fill-opacity="1"></use><g><use xlink:href="#apyzABvgl" opacity="1" fill-opacity="0" stroke="#000000" stroke-width="1" stroke-opacity="0"></use></g></g></g></g></g></svg>