<?xml version="1.0" encoding="UTF-8" standalone="no"?>
<!DOCTYPE svg PUBLIC "-//W3C//DTD SVG 1.1//EN" "http://www.w3.org/Graphics/SVG/1.1/DTD/svg11.dtd">
<svg version="1.1" xmlns="http://www.w3.org/2000/svg" xmlns:xlink="http://www.w3.org/1999/xlink" preserveAspectRatio="xMidYMid meet" viewBox="0 0 60 60" width="60" height="60"><defs><path d="M60 30C60 46.56 46.56 60 30 60C13.44 60 0 46.56 0 30C0 13.44 13.44 0 30 0C46.56 0 60 13.44 60 30Z" id="anrXgWYWg"></path><path d="M47.52 10.02L47.71 10.04L47.89 10.08L48.07 10.12L48.24 10.17L48.41 10.23L48.58 10.3L48.74 10.38L48.9 10.46L49.05 10.55L49.2 10.65L49.35 10.76L49.48 10.87L49.61 10.99L49.74 11.11L49.86 11.24L49.97 11.38L50.08 11.52L50.18 11.67L50.27 11.83L50.35 11.98L50.43 12.15L50.5 12.31L50.56 12.48L50.61 12.66L50.65 12.84L50.68 13.02L50.71 13.2L50.72 13.39L50.73 13.58L50.73 47.15L50.72 47.34L50.71 47.52L50.68 47.71L50.65 47.89L50.61 48.07L50.56 48.24L50.5 48.41L50.43 48.58L50.35 48.74L50.27 48.9L50.18 49.05L50.08 49.2L49.97 49.35L49.86 49.48L49.74 49.61L49.61 49.74L49.48 49.86L49.35 49.97L49.2 50.08L49.05 50.18L48.9 50.27L48.74 50.35L48.58 50.43L48.41 50.5L48.24 50.56L48.07 50.61L47.89 50.65L47.71 50.68L47.52 50.71L47.34 50.72L47.15 50.73L13.58 50.73L13.39 50.72L13.2 50.71L13.02 50.68L12.84 50.65L12.66 50.61L12.48 50.56L12.31 50.5L12.15 50.43L11.98 50.35L11.83 50.27L11.67 50.18L11.52 50.08L11.38 49.97L11.24 49.86L11.11 49.74L10.99 49.61L10.87 49.48L10.76 49.35L10.65 49.2L10.55 49.05L10.46 48.9L10.38 48.74L10.3 48.58L10.23 48.41L10.17 48.24L10.12 48.07L10.08 47.89L10.04 47.71L10.02 47.52L10 47.34L10 47.15L10 13.58L10 13.39L10.02 13.2L10.04 13.02L10.08 12.84L10.12 12.66L10.17 12.48L10.23 12.31L10.3 12.15L10.38 11.98L10.46 11.83L10.55 11.67L10.65 11.52L10.76 11.38L10.87 11.24L10.99 11.11L11.11 10.99L11.24 10.87L11.38 10.76L11.52 10.65L11.67 10.55L11.83 10.46L11.98 10.38L12.15 10.3L12.31 10.23L12.48 10.17L12.66 10.12L12.84 10.08L13.02 10.04L13.2 10.02L13.39 10L13.58 10L47.15 10L47.34 10L47.52 10.02ZM13.51 12.39L13.44 12.39L13.37 12.4L13.31 12.42L13.24 12.44L13.18 12.46L13.12 12.48L13.06 12.51L13 12.54L12.94 12.57L12.89 12.61L12.83 12.65L12.78 12.69L12.74 12.74L12.69 12.78L12.65 12.83L12.61 12.89L12.57 12.94L12.54 13L12.51 13.06L12.48 13.12L12.46 13.18L12.44 13.24L12.42 13.31L12.4 13.37L12.39 13.44L12.39 13.51L12.39 13.58L12.39 47.15L12.39 47.22L12.39 47.29L12.4 47.35L12.42 47.42L12.44 47.49L12.46 47.55L12.48 47.61L12.51 47.67L12.54 47.73L12.57 47.79L12.61 47.84L12.65 47.89L12.69 47.94L12.74 47.99L12.78 48.04L12.83 48.08L12.89 48.12L12.94 48.15L13 48.19L13.06 48.22L13.12 48.25L13.18 48.27L13.24 48.29L13.31 48.31L13.37 48.32L13.44 48.33L13.51 48.34L13.58 48.34L47.15 48.34L47.22 48.34L47.29 48.33L47.35 48.32L47.42 48.31L47.49 48.29L47.55 48.27L47.61 48.25L47.67 48.22L47.73 48.19L47.79 48.15L47.84 48.12L47.89 48.08L47.94 48.04L47.99 47.99L48.04 47.94L48.08 47.89L48.12 47.84L48.15 47.79L48.19 47.73L48.22 47.67L48.25 47.61L48.27 47.55L48.29 47.49L48.31 47.42L48.32 47.35L48.33 47.29L48.34 47.22L48.34 47.15L48.34 13.58L48.34 13.51L48.33 13.44L48.32 13.37L48.31 13.31L48.29 13.24L48.27 13.18L48.25 13.12L48.22 13.06L48.19 13L48.15 12.94L48.12 12.89L48.08 12.83L48.04 12.78L47.99 12.74L47.94 12.69L47.89 12.65L47.84 12.61L47.79 12.57L47.73 12.54L47.67 12.51L47.61 12.48L47.55 12.46L47.49 12.44L47.42 12.42L47.35 12.4L47.29 12.39L47.22 12.39L47.15 12.39L13.58 12.39L13.51 12.39Z" id="b2ETeG37f"></path><path d="M32.49 15.03L33.54 15.15L34.58 15.32L35.61 15.53L36.62 15.79L37.62 16.1L38.6 16.45L39.57 16.85L40.52 17.3L41.45 17.79L42.37 18.32L43.26 18.9L44.12 19.52L44.18 19.56L44.23 19.6L44.28 19.65L44.32 19.7L44.36 19.75L44.4 19.81L44.44 19.86L44.47 19.92L44.5 19.98L44.52 20.04L44.55 20.11L44.56 20.17L44.58 20.24L44.59 20.3L44.6 20.37L44.6 20.44L44.6 20.51L44.6 20.57L44.59 20.64L44.58 20.7L44.56 20.77L44.55 20.83L44.52 20.9L44.5 20.96L44.47 21.02L44.44 21.08L44.4 21.13L44.36 21.19L38.06 29.57L37.97 29.68L37.87 29.77L37.77 29.85L37.65 29.92L37.53 29.97L37.41 30.01L37.28 30.03L37.15 30.04L37.02 30.04L36.89 30.02L36.76 29.99L36.63 29.95L36.51 29.88L36.39 29.81L36.01 29.53L35.62 29.28L35.22 29.05L34.82 28.83L34.4 28.64L33.98 28.46L33.54 28.31L33.11 28.17L32.66 28.06L32.21 27.97L31.76 27.89L31.3 27.84L30.83 27.81L30.36 27.8L29.9 27.81L29.43 27.84L28.97 27.89L28.52 27.97L28.07 28.06L27.62 28.17L27.18 28.31L26.75 28.46L26.33 28.64L25.91 28.83L25.5 29.05L25.1 29.28L24.71 29.53L24.33 29.81L24.29 29.84L24.24 29.87L24.19 29.9L24.14 29.92L24.09 29.95L24.04 29.97L23.99 29.99L23.94 30L23.88 30.02L23.83 30.03L23.78 30.03L23.72 30.04L23.67 30.04L23.62 30.05L23.54 30.04L23.46 30.04L23.39 30.02L23.31 30.01L23.24 29.98L23.16 29.96L23.09 29.92L23.02 29.89L22.96 29.85L22.89 29.8L22.83 29.75L22.77 29.69L22.72 29.63L22.66 29.57L16.36 21.19L16.33 21.13L16.29 21.08L16.26 21.02L16.23 20.96L16.2 20.9L16.18 20.83L16.16 20.77L16.15 20.7L16.14 20.64L16.13 20.57L16.13 20.51L16.13 20.44L16.13 20.37L16.14 20.3L16.15 20.24L16.16 20.17L16.18 20.11L16.2 20.04L16.23 19.98L16.26 19.92L16.29 19.86L16.33 19.81L16.37 19.75L16.41 19.7L16.45 19.65L16.5 19.6L16.55 19.56L16.6 19.52L17.47 18.9L18.36 18.32L19.27 17.79L20.2 17.3L21.16 16.85L22.12 16.45L23.11 16.1L24.11 15.79L25.12 15.53L26.15 15.32L27.19 15.15L28.24 15.03L29.3 14.96L30.36 14.93L31.43 14.96L32.49 15.03ZM28.34 17.42L27.34 17.54L26.36 17.71L25.38 17.92L24.42 18.19L23.47 18.5L22.54 18.86L21.63 19.26L20.74 19.71L19.86 20.2L19.01 20.74L23.89 27.23L24.29 26.99L24.71 26.77L25.13 26.56L25.56 26.37L25.99 26.2L26.43 26.04L26.87 25.91L27.32 25.78L27.78 25.68L28.24 25.59L28.7 25.52L29.17 25.47L29.17 21.83L29.18 21.67L29.21 21.51L29.26 21.37L29.33 21.23L29.42 21.1L29.52 20.99L29.63 20.89L29.76 20.8L29.9 20.73L30.05 20.68L30.2 20.65L30.36 20.64L30.53 20.65L30.68 20.68L30.83 20.73L30.97 20.8L31.09 20.89L31.21 20.99L31.31 21.1L31.39 21.23L31.46 21.37L31.51 21.51L31.55 21.67L31.56 21.83L31.56 25.47L32.02 25.52L32.49 25.59L32.95 25.68L33.4 25.78L33.85 25.91L34.3 26.04L34.74 26.2L35.17 26.37L35.6 26.56L36.02 26.77L36.43 26.99L36.84 27.23L41.72 20.74L40.86 20.2L39.99 19.71L39.1 19.26L38.18 18.86L37.25 18.5L36.31 18.19L35.35 17.92L34.37 17.71L33.39 17.54L32.39 17.42L31.38 17.34L30.36 17.32L29.35 17.34L28.34 17.42Z" id="b2hhwSEi0z"></path></defs><g><g><g><g><use xlink:href="#anrXgWYWg" opacity="1" fill="#00cfbf" fill-opacity="1"></use></g><g><use xlink:href="#b2ETeG37f" opacity="1" fill="#ffffff" fill-opacity="1"></use><g><use xlink:href="#b2ETeG37f" opacity="1" fill-opacity="0" stroke="#000000" stroke-width="1" stroke-opacity="0"></use></g></g><g><use xlink:href="#b2hhwSEi0z" opacity="1" fill="#ffffff" fill-opacity="1"></use><g><use xlink:href="#b2hhwSEi0z" opacity="1" fill-opacity="0" stroke="#000000" stroke-width="1" stroke-opacity="0"></use></g></g></g></g></g></svg>